<mxfile host="Electron" agent="Mozilla/5.0 (Macintosh; Intel Mac OS X 10_15_7) AppleWebKit/537.36 (KHTML, like Gecko) draw.io/26.1.1 Chrome/132.0.6834.210 Electron/34.3.3 Safari/537.36" version="26.1.1">
  <diagram name="Arch" id="Yus2j_9Mw1io1Vl5Ufiu">
    <mxGraphModel dx="2562" dy="2244" grid="0" gridSize="10" guides="1" tooltips="1" connect="1" arrows="1" fold="1" page="1" pageScale="1" pageWidth="827" pageHeight="1169" math="0" shadow="0">
      <root>
        <mxCell id="0" />
        <mxCell id="1" parent="0" />
        <mxCell id="ANkwzQRA43zdDnE30-9h-466" value="" style="rounded=0;whiteSpace=wrap;html=1;strokeColor=#999999;movable=1;resizable=1;rotatable=1;deletable=1;editable=1;locked=0;connectable=1;" vertex="1" parent="1">
          <mxGeometry x="2020.51" y="1405.45" width="120" height="112" as="geometry" />
        </mxCell>
        <mxCell id="ANkwzQRA43zdDnE30-9h-373" value="&lt;font style=&quot;font-size: 10px;&quot;&gt;AWS Cloud&lt;/font&gt;" style="sketch=0;outlineConnect=0;gradientColor=none;html=1;whiteSpace=wrap;fontSize=12;fontStyle=0;shape=mxgraph.aws4.group;grIcon=mxgraph.aws4.group_aws_cloud;strokeColor=#AAB7B8;fillColor=none;verticalAlign=top;align=left;spacingLeft=30;fontColor=#AAB7B8;dashed=0;movable=1;resizable=1;rotatable=1;deletable=1;editable=1;locked=0;connectable=1;" vertex="1" parent="1">
          <mxGeometry x="1671" y="1405.5800000000002" width="338" height="415" as="geometry" />
        </mxCell>
        <mxCell id="ANkwzQRA43zdDnE30-9h-368" value="&lt;font style=&quot;font-size: 10px;&quot;&gt;AWS Cloud&lt;/font&gt;" style="sketch=0;outlineConnect=0;gradientColor=none;html=1;whiteSpace=wrap;fontSize=12;fontStyle=0;shape=mxgraph.aws4.group;grIcon=mxgraph.aws4.group_aws_cloud;strokeColor=#AAB7B8;fillColor=none;verticalAlign=top;align=left;spacingLeft=30;fontColor=#AAB7B8;dashed=0;movable=1;resizable=1;rotatable=1;deletable=1;editable=1;locked=0;connectable=1;" vertex="1" parent="1">
          <mxGeometry x="2513.0000000000005" y="1405.5800000000002" width="328.95" height="451" as="geometry" />
        </mxCell>
        <mxCell id="ANkwzQRA43zdDnE30-9h-339" value="&lt;font style=&quot;font-size: 10px;&quot;&gt;us-east-1 (Primary)&lt;/font&gt;" style="sketch=0;outlineConnect=0;gradientColor=none;html=1;whiteSpace=wrap;fontSize=12;fontStyle=0;shape=mxgraph.aws4.group;grIcon=mxgraph.aws4.group_region;strokeColor=#B6BABF;fillColor=none;verticalAlign=top;align=left;spacingLeft=30;fontColor=#B6BABF;dashed=1;movable=1;resizable=1;rotatable=1;deletable=1;editable=1;locked=0;connectable=1;" vertex="1" parent="1">
          <mxGeometry x="2546.9500000000003" y="1525.46" width="219.95" height="319.24" as="geometry" />
        </mxCell>
        <mxCell id="ANkwzQRA43zdDnE30-9h-264" value="&lt;font style=&quot;font-size: 10px;&quot;&gt;us-east-1 (Primary)&lt;/font&gt;" style="sketch=0;outlineConnect=0;gradientColor=none;html=1;whiteSpace=wrap;fontSize=12;fontStyle=0;shape=mxgraph.aws4.group;grIcon=mxgraph.aws4.group_region;strokeColor=#B6BABF;fillColor=none;verticalAlign=top;align=left;spacingLeft=30;fontColor=#B6BABF;dashed=1;movable=1;resizable=1;rotatable=1;deletable=1;editable=1;locked=0;connectable=1;" vertex="1" parent="1">
          <mxGeometry x="1684.5" y="1491.5800000000002" width="311" height="316.5" as="geometry" />
        </mxCell>
        <mxCell id="ANkwzQRA43zdDnE30-9h-182" value="" style="rounded=1;whiteSpace=wrap;html=1;arcSize=2;shadow=1;dashed=1;movable=0;resizable=0;rotatable=0;deletable=0;editable=0;locked=1;connectable=0;fillColor=#dae8fc;strokeColor=#6c8ebf;" vertex="1" parent="1">
          <mxGeometry x="1697.69" y="407" width="1210.31" height="613" as="geometry" />
        </mxCell>
        <mxCell id="ANkwzQRA43zdDnE30-9h-166" value="" style="endArrow=classic;html=1;rounded=0;exitX=0.5;exitY=1;exitDx=0;exitDy=0;entryX=0.75;entryY=0;entryDx=0;entryDy=0;dashed=1;dashPattern=12 12;" edge="1" parent="1" source="ANkwzQRA43zdDnE30-9h-162" target="ANkwzQRA43zdDnE30-9h-34">
          <mxGeometry width="50" height="50" relative="1" as="geometry">
            <mxPoint x="1110" y="332" as="sourcePoint" />
            <mxPoint x="1154" y="461" as="targetPoint" />
          </mxGeometry>
        </mxCell>
        <mxCell id="ANkwzQRA43zdDnE30-9h-75" value="" style="rounded=1;whiteSpace=wrap;html=1;arcSize=5;shadow=1;dashed=1;" vertex="1" parent="1">
          <mxGeometry x="862.12" y="980" width="327" height="124" as="geometry" />
        </mxCell>
        <mxCell id="ANkwzQRA43zdDnE30-9h-31" value="System Context" style="text;html=1;align=left;verticalAlign=middle;whiteSpace=wrap;rounded=0;fontSize=32;fontStyle=1" vertex="1" parent="1">
          <mxGeometry x="862" y="49" width="754" height="38" as="geometry" />
        </mxCell>
        <mxCell id="ANkwzQRA43zdDnE30-9h-32" value="CMovie Streaming Platform" style="text;html=1;align=left;verticalAlign=middle;whiteSpace=wrap;rounded=0;fontSize=24;" vertex="1" parent="1">
          <mxGeometry x="862" y="87" width="754" height="31" as="geometry" />
        </mxCell>
        <mxCell id="ANkwzQRA43zdDnE30-9h-34" value="" style="rounded=1;whiteSpace=wrap;html=1;fillColor=#2B87FF;strokeColor=none;shadow=1;" vertex="1" parent="1">
          <mxGeometry x="1058.24" y="450.5" width="341.76" height="126" as="geometry" />
        </mxCell>
        <mxCell id="ANkwzQRA43zdDnE30-9h-35" value="" style="sketch=0;pointerEvents=1;shadow=0;dashed=0;html=1;strokeColor=none;fillColor=#FFFFFF;aspect=fixed;labelPosition=center;verticalLabelPosition=bottom;verticalAlign=top;align=center;outlineConnect=0;shape=mxgraph.vvd.cpu;" vertex="1" parent="1">
          <mxGeometry x="1070.24" y="463.5" width="30" height="30" as="geometry" />
        </mxCell>
        <mxCell id="ANkwzQRA43zdDnE30-9h-36" value="&lt;font style=&quot;font-size: 16px; color: rgb(255, 255, 255);&quot;&gt;&lt;b&gt;CMovie Streaming Platform&lt;/b&gt;&lt;/font&gt;" style="text;html=1;align=left;verticalAlign=middle;whiteSpace=wrap;rounded=0;fontSize=24;" vertex="1" parent="1">
          <mxGeometry x="1105.24" y="460.5" width="229" height="31" as="geometry" />
        </mxCell>
        <mxCell id="ANkwzQRA43zdDnE30-9h-39" value="&lt;font style=&quot;color: rgb(255, 255, 255);&quot;&gt;Allows users to browse, watch, and interact with video content uploaded by the content team. It also supports content management, user comments, and geo-aware delivery of high-quality videos.&lt;/font&gt;" style="text;whiteSpace=wrap;html=1;" vertex="1" parent="1">
          <mxGeometry x="1070.24" y="498.5" width="320.76" height="54" as="geometry" />
        </mxCell>
        <mxCell id="ANkwzQRA43zdDnE30-9h-40" value="" style="rounded=1;whiteSpace=wrap;html=1;fillColor=#999999;strokeColor=none;shadow=1;" vertex="1" parent="1">
          <mxGeometry x="1060.24" y="684" width="337.76" height="111" as="geometry" />
        </mxCell>
        <mxCell id="ANkwzQRA43zdDnE30-9h-41" value="" style="sketch=0;pointerEvents=1;shadow=0;dashed=0;html=1;strokeColor=none;fillColor=#FFFFFF;aspect=fixed;labelPosition=center;verticalLabelPosition=bottom;verticalAlign=top;align=center;outlineConnect=0;shape=mxgraph.vvd.cpu;" vertex="1" parent="1">
          <mxGeometry x="1072.24" y="697" width="30" height="30" as="geometry" />
        </mxCell>
        <mxCell id="ANkwzQRA43zdDnE30-9h-42" value="&lt;font style=&quot;font-size: 16px; color: rgb(255, 255, 255);&quot;&gt;&lt;b&gt;Payment Service&lt;/b&gt;&lt;/font&gt;" style="text;html=1;align=left;verticalAlign=middle;whiteSpace=wrap;rounded=0;fontSize=24;" vertex="1" parent="1">
          <mxGeometry x="1107.24" y="694" width="206" height="31" as="geometry" />
        </mxCell>
        <mxCell id="ANkwzQRA43zdDnE30-9h-44" value="" style="endArrow=classic;html=1;rounded=0;exitX=0.5;exitY=1;exitDx=0;exitDy=0;entryX=0.5;entryY=0;entryDx=0;entryDy=0;dashed=1;dashPattern=12 12;" edge="1" parent="1" source="ANkwzQRA43zdDnE30-9h-34" target="ANkwzQRA43zdDnE30-9h-40">
          <mxGeometry width="50" height="50" relative="1" as="geometry">
            <mxPoint x="1267" y="610" as="sourcePoint" />
            <mxPoint x="1317" y="560" as="targetPoint" />
          </mxGeometry>
        </mxCell>
        <mxCell id="ANkwzQRA43zdDnE30-9h-45" value="&lt;font style=&quot;color: rgb(0, 0, 0); background-color: light-dark(#ffffff, var(--ge-dark-color, #121212));&quot;&gt;Process payment, confirms payment status&lt;/font&gt;" style="text;whiteSpace=wrap;html=1;align=center;" vertex="1" parent="1">
          <mxGeometry x="1154" y="608" width="145" height="41" as="geometry" />
        </mxCell>
        <mxCell id="ANkwzQRA43zdDnE30-9h-46" value="" style="rounded=1;whiteSpace=wrap;html=1;fillColor=#67AB9F;strokeColor=none;shadow=1;" vertex="1" parent="1">
          <mxGeometry x="1019" y="274" width="200" height="81" as="geometry" />
        </mxCell>
        <mxCell id="ANkwzQRA43zdDnE30-9h-48" value="&lt;font style=&quot;font-size: 16px; color: rgb(255, 255, 255);&quot;&gt;&lt;b&gt;Content Moderator&lt;/b&gt;&lt;/font&gt;" style="text;html=1;align=left;verticalAlign=middle;whiteSpace=wrap;rounded=0;fontSize=24;" vertex="1" parent="1">
          <mxGeometry x="1052.75" y="282.5" width="148" height="31" as="geometry" />
        </mxCell>
        <mxCell id="ANkwzQRA43zdDnE30-9h-49" value="&lt;font style=&quot;color: rgb(255, 255, 255);&quot;&gt;Internal team managing the video library.&lt;/font&gt;" style="text;whiteSpace=wrap;html=1;" vertex="1" parent="1">
          <mxGeometry x="1030.37" y="311" width="178.25" height="36" as="geometry" />
        </mxCell>
        <mxCell id="ANkwzQRA43zdDnE30-9h-50" value="" style="sketch=0;outlineConnect=0;fontColor=#232F3E;gradientColor=none;fillColor=#FFFFFF;strokeColor=none;dashed=0;verticalLabelPosition=bottom;verticalAlign=top;align=center;html=1;fontSize=12;fontStyle=0;aspect=fixed;pointerEvents=1;shape=mxgraph.aws4.user;" vertex="1" parent="1">
          <mxGeometry x="1030.37" y="290.25" width="18.5" height="18.5" as="geometry" />
        </mxCell>
        <mxCell id="ANkwzQRA43zdDnE30-9h-55" value="" style="endArrow=classic;html=1;rounded=0;exitX=0.5;exitY=1;exitDx=0;exitDy=0;entryX=0.25;entryY=0;entryDx=0;entryDy=0;dashed=1;dashPattern=12 12;" edge="1" parent="1" source="ANkwzQRA43zdDnE30-9h-46" target="ANkwzQRA43zdDnE30-9h-34">
          <mxGeometry width="50" height="50" relative="1" as="geometry">
            <mxPoint x="1245" y="572" as="sourcePoint" />
            <mxPoint x="1245" y="667" as="targetPoint" />
          </mxGeometry>
        </mxCell>
        <mxCell id="ANkwzQRA43zdDnE30-9h-57" value="&lt;font style=&quot;color: rgb(255, 255, 255);&quot;&gt;Handles subscriptions and billing. Provides webhook to get payment status&lt;/font&gt;" style="text;whiteSpace=wrap;html=1;" vertex="1" parent="1">
          <mxGeometry x="1072.24" y="730" width="315.76" height="54" as="geometry" />
        </mxCell>
        <mxCell id="ANkwzQRA43zdDnE30-9h-58" value="&lt;span style=&quot;background-color: light-dark(#ffffff, var(--ge-dark-color, #121212));&quot;&gt;Upload video, sets metadata, view metrics&lt;/span&gt;" style="text;whiteSpace=wrap;html=1;align=center;" vertex="1" parent="1">
          <mxGeometry x="1066.5" y="375" width="131" height="38" as="geometry" />
        </mxCell>
        <mxCell id="ANkwzQRA43zdDnE30-9h-59" value="&lt;span style=&quot;background-color: light-dark(#ffffff, var(--ge-dark-color, #121212));&quot;&gt;Browse video catalog, watch, add comments&lt;/span&gt;" style="text;whiteSpace=wrap;html=1;align=center;" vertex="1" parent="1">
          <mxGeometry x="1293" y="375" width="131" height="38" as="geometry" />
        </mxCell>
        <mxCell id="ANkwzQRA43zdDnE30-9h-61" value="" style="rounded=1;whiteSpace=wrap;html=1;fillColor=#67AB9F;strokeColor=none;shadow=1;" vertex="1" parent="1">
          <mxGeometry x="875.12" y="991" width="42" height="45" as="geometry" />
        </mxCell>
        <mxCell id="ANkwzQRA43zdDnE30-9h-62" value="" style="sketch=0;outlineConnect=0;fontColor=#232F3E;gradientColor=none;fillColor=#FFFFFF;strokeColor=none;dashed=0;verticalLabelPosition=bottom;verticalAlign=top;align=center;html=1;fontSize=12;fontStyle=0;aspect=fixed;pointerEvents=1;shape=mxgraph.aws4.user;" vertex="1" parent="1">
          <mxGeometry x="882.12" y="999" width="28" height="28" as="geometry" />
        </mxCell>
        <mxCell id="ANkwzQRA43zdDnE30-9h-63" value="" style="rounded=1;whiteSpace=wrap;html=1;fillColor=#2B87FF;strokeColor=none;shadow=1;" vertex="1" parent="1">
          <mxGeometry x="1034.12" y="990.25" width="43" height="45.5" as="geometry" />
        </mxCell>
        <mxCell id="ANkwzQRA43zdDnE30-9h-64" value="" style="sketch=0;pointerEvents=1;shadow=0;dashed=0;html=1;strokeColor=none;fillColor=#FFFFFF;aspect=fixed;labelPosition=center;verticalLabelPosition=bottom;verticalAlign=top;align=center;outlineConnect=0;shape=mxgraph.vvd.cpu;" vertex="1" parent="1">
          <mxGeometry x="1041.12" y="998" width="30" height="30" as="geometry" />
        </mxCell>
        <mxCell id="ANkwzQRA43zdDnE30-9h-65" value="" style="rounded=1;whiteSpace=wrap;html=1;fillColor=#999999;strokeColor=none;shadow=1;" vertex="1" parent="1">
          <mxGeometry x="875.12" y="1046" width="45" height="46" as="geometry" />
        </mxCell>
        <mxCell id="ANkwzQRA43zdDnE30-9h-66" value="" style="sketch=0;pointerEvents=1;shadow=0;dashed=0;html=1;strokeColor=none;fillColor=#FFFFFF;aspect=fixed;labelPosition=center;verticalLabelPosition=bottom;verticalAlign=top;align=center;outlineConnect=0;shape=mxgraph.vvd.cpu;" vertex="1" parent="1">
          <mxGeometry x="883.12" y="1054" width="30" height="30" as="geometry" />
        </mxCell>
        <mxCell id="ANkwzQRA43zdDnE30-9h-67" value="&lt;span style=&quot;background-color: light-dark(#ffffff, var(--ge-dark-color, #121212));&quot;&gt;System user&lt;/span&gt;" style="text;whiteSpace=wrap;html=1;align=left;" vertex="1" parent="1">
          <mxGeometry x="929.24" y="1000.25" width="75.88" height="26.5" as="geometry" />
        </mxCell>
        <mxCell id="ANkwzQRA43zdDnE30-9h-68" value="&lt;span style=&quot;background-color: light-dark(#ffffff, var(--ge-dark-color, #121212));&quot;&gt;Internal system&lt;/span&gt;" style="text;whiteSpace=wrap;html=1;align=left;" vertex="1" parent="1">
          <mxGeometry x="1085.12" y="999" width="93.76" height="26.5" as="geometry" />
        </mxCell>
        <mxCell id="ANkwzQRA43zdDnE30-9h-69" value="&lt;span style=&quot;background-color: light-dark(#ffffff, var(--ge-dark-color, #121212));&quot;&gt;External system&lt;/span&gt;" style="text;whiteSpace=wrap;html=1;align=left;" vertex="1" parent="1">
          <mxGeometry x="929.24" y="1055.75" width="92.88" height="26.5" as="geometry" />
        </mxCell>
        <mxCell id="ANkwzQRA43zdDnE30-9h-70" value="" style="endArrow=classic;html=1;rounded=0;exitX=0.5;exitY=1;exitDx=0;exitDy=0;dashed=1;dashPattern=12 12;" edge="1" parent="1">
          <mxGeometry width="50" height="50" relative="1" as="geometry">
            <mxPoint x="1034.62" y="1068.52" as="sourcePoint" />
            <mxPoint x="1077.62" y="1069" as="targetPoint" />
          </mxGeometry>
        </mxCell>
        <mxCell id="ANkwzQRA43zdDnE30-9h-73" value="&lt;span style=&quot;background-color: light-dark(#ffffff, var(--ge-dark-color, #121212));&quot;&gt;Relationship&lt;/span&gt;" style="text;whiteSpace=wrap;html=1;align=left;" vertex="1" parent="1">
          <mxGeometry x="1085.12" y="1057.5" width="93.76" height="26.5" as="geometry" />
        </mxCell>
        <mxCell id="ANkwzQRA43zdDnE30-9h-76" value="Container Diagram" style="text;html=1;align=left;verticalAlign=middle;whiteSpace=wrap;rounded=0;fontSize=32;fontStyle=1" vertex="1" parent="1">
          <mxGeometry x="1688" y="49" width="754" height="38" as="geometry" />
        </mxCell>
        <mxCell id="ANkwzQRA43zdDnE30-9h-77" value="CMovie Streaming Platform" style="text;html=1;align=left;verticalAlign=middle;whiteSpace=wrap;rounded=0;fontSize=24;" vertex="1" parent="1">
          <mxGeometry x="1688" y="89" width="754" height="31" as="geometry" />
        </mxCell>
        <mxCell id="ANkwzQRA43zdDnE30-9h-86" value="" style="rounded=1;whiteSpace=wrap;html=1;fillColor=#67AB9F;strokeColor=none;shadow=1;" vertex="1" parent="1">
          <mxGeometry x="1711" y="214" width="284.49" height="92" as="geometry" />
        </mxCell>
        <mxCell id="ANkwzQRA43zdDnE30-9h-87" value="&lt;font style=&quot;font-size: 16px; color: rgb(255, 255, 255);&quot;&gt;&lt;b&gt;Content Moderator&lt;/b&gt;&lt;/font&gt;" style="text;html=1;align=left;verticalAlign=middle;whiteSpace=wrap;rounded=0;fontSize=24;" vertex="1" parent="1">
          <mxGeometry x="1758" y="224" width="206" height="31" as="geometry" />
        </mxCell>
        <mxCell id="ANkwzQRA43zdDnE30-9h-88" value="&lt;font style=&quot;color: rgb(255, 255, 255);&quot;&gt;Internal team managing the video library.&lt;/font&gt;" style="text;whiteSpace=wrap;html=1;" vertex="1" parent="1">
          <mxGeometry x="1723" y="263" width="244" height="35" as="geometry" />
        </mxCell>
        <mxCell id="ANkwzQRA43zdDnE30-9h-89" value="" style="sketch=0;outlineConnect=0;fontColor=#232F3E;gradientColor=none;fillColor=#FFFFFF;strokeColor=none;dashed=0;verticalLabelPosition=bottom;verticalAlign=top;align=center;html=1;fontSize=12;fontStyle=0;aspect=fixed;pointerEvents=1;shape=mxgraph.aws4.user;" vertex="1" parent="1">
          <mxGeometry x="1725.25" y="227" width="28" height="28" as="geometry" />
        </mxCell>
        <mxCell id="ANkwzQRA43zdDnE30-9h-90" value="" style="rounded=1;whiteSpace=wrap;html=1;fillColor=#67AB9F;strokeColor=none;shadow=1;" vertex="1" parent="1">
          <mxGeometry x="2313.74" y="214" width="284.49" height="92" as="geometry" />
        </mxCell>
        <mxCell id="ANkwzQRA43zdDnE30-9h-91" value="&lt;font style=&quot;font-size: 16px; color: rgb(255, 255, 255);&quot;&gt;&lt;b&gt;End-User&lt;/b&gt;&lt;/font&gt;" style="text;html=1;align=left;verticalAlign=middle;whiteSpace=wrap;rounded=0;fontSize=24;" vertex="1" parent="1">
          <mxGeometry x="2360.74" y="224" width="206" height="31" as="geometry" />
        </mxCell>
        <mxCell id="ANkwzQRA43zdDnE30-9h-92" value="&lt;font style=&quot;color: rgb(255, 255, 255);&quot;&gt;Consumers using mobile or web to browse and watch content.&lt;/font&gt;" style="text;whiteSpace=wrap;html=1;" vertex="1" parent="1">
          <mxGeometry x="2325.74" y="263" width="244" height="41" as="geometry" />
        </mxCell>
        <mxCell id="ANkwzQRA43zdDnE30-9h-93" value="" style="sketch=0;outlineConnect=0;fontColor=#232F3E;gradientColor=none;fillColor=#FFFFFF;strokeColor=none;dashed=0;verticalLabelPosition=bottom;verticalAlign=top;align=center;html=1;fontSize=12;fontStyle=0;aspect=fixed;pointerEvents=1;shape=mxgraph.aws4.user;" vertex="1" parent="1">
          <mxGeometry x="2327.99" y="227" width="28" height="28" as="geometry" />
        </mxCell>
        <mxCell id="ANkwzQRA43zdDnE30-9h-94" value="" style="rounded=1;whiteSpace=wrap;html=1;fillColor=#2B87FF;strokeColor=none;shadow=1;" vertex="1" parent="1">
          <mxGeometry x="1713.74" y="427" width="281.75" height="126" as="geometry" />
        </mxCell>
        <mxCell id="ANkwzQRA43zdDnE30-9h-96" value="&lt;font style=&quot;font-size: 16px; color: rgb(255, 255, 255);&quot;&gt;&lt;b&gt;Admin Web Application&lt;/b&gt;&lt;/font&gt;" style="text;html=1;align=left;verticalAlign=middle;whiteSpace=wrap;rounded=0;fontSize=24;" vertex="1" parent="1">
          <mxGeometry x="1762.49" y="434" width="229" height="31" as="geometry" />
        </mxCell>
        <mxCell id="ANkwzQRA43zdDnE30-9h-97" value="&lt;font style=&quot;color: rgb(255, 255, 255);&quot;&gt;Delivers the static content and the CMovie admin single page application&lt;/font&gt;" style="text;whiteSpace=wrap;html=1;" vertex="1" parent="1">
          <mxGeometry x="1724.24" y="490.5" width="265.25" height="42.5" as="geometry" />
        </mxCell>
        <mxCell id="ANkwzQRA43zdDnE30-9h-99" value="" style="sketch=0;pointerEvents=1;shadow=0;dashed=0;html=1;strokeColor=none;fillColor=#FFFFFF;aspect=fixed;labelPosition=center;verticalLabelPosition=bottom;verticalAlign=top;align=center;outlineConnect=0;shape=mxgraph.vvd.web_browser;fontColor=#FFFFFF;" vertex="1" parent="1">
          <mxGeometry x="1724.43" y="451.5" width="26.06" height="18.5" as="geometry" />
        </mxCell>
        <mxCell id="ANkwzQRA43zdDnE30-9h-100" value="&lt;font style=&quot;font-size: 16px; color: rgb(255, 255, 255);&quot;&gt;TypeScript, React.js&lt;/font&gt;" style="text;html=1;align=left;verticalAlign=middle;whiteSpace=wrap;rounded=0;fontSize=24;" vertex="1" parent="1">
          <mxGeometry x="1762.49" y="451.5" width="229" height="31" as="geometry" />
        </mxCell>
        <mxCell id="ANkwzQRA43zdDnE30-9h-101" value="" style="rounded=1;whiteSpace=wrap;html=1;fillColor=#2B87FF;strokeColor=none;shadow=1;" vertex="1" parent="1">
          <mxGeometry x="2014" y="427" width="281.75" height="126" as="geometry" />
        </mxCell>
        <mxCell id="ANkwzQRA43zdDnE30-9h-102" value="&lt;font style=&quot;font-size: 16px; color: rgb(255, 255, 255);&quot;&gt;&lt;b&gt;User Web Application&lt;/b&gt;&lt;/font&gt;" style="text;html=1;align=left;verticalAlign=middle;whiteSpace=wrap;rounded=0;fontSize=24;" vertex="1" parent="1">
          <mxGeometry x="2062.75" y="434" width="229" height="31" as="geometry" />
        </mxCell>
        <mxCell id="ANkwzQRA43zdDnE30-9h-103" value="&lt;font style=&quot;color: rgb(255, 255, 255);&quot;&gt;Delivers the static content and the CMovie streaming web application&lt;/font&gt;" style="text;whiteSpace=wrap;html=1;" vertex="1" parent="1">
          <mxGeometry x="2024.5" y="490.5" width="265.25" height="42.5" as="geometry" />
        </mxCell>
        <mxCell id="ANkwzQRA43zdDnE30-9h-104" value="" style="sketch=0;pointerEvents=1;shadow=0;dashed=0;html=1;strokeColor=none;fillColor=#FFFFFF;aspect=fixed;labelPosition=center;verticalLabelPosition=bottom;verticalAlign=top;align=center;outlineConnect=0;shape=mxgraph.vvd.web_browser;fontColor=#FFFFFF;" vertex="1" parent="1">
          <mxGeometry x="2024.69" y="451.5" width="26.06" height="18.5" as="geometry" />
        </mxCell>
        <mxCell id="ANkwzQRA43zdDnE30-9h-105" value="&lt;font style=&quot;font-size: 16px; color: rgb(255, 255, 255);&quot;&gt;TypeScript, Next.js&lt;/font&gt;" style="text;html=1;align=left;verticalAlign=middle;whiteSpace=wrap;rounded=0;fontSize=24;" vertex="1" parent="1">
          <mxGeometry x="2062.75" y="451.5" width="229" height="31" as="geometry" />
        </mxCell>
        <mxCell id="ANkwzQRA43zdDnE30-9h-111" value="" style="rounded=1;whiteSpace=wrap;html=1;fillColor=#2B87FF;strokeColor=none;shadow=1;" vertex="1" parent="1">
          <mxGeometry x="2313.74" y="427" width="281.75" height="126" as="geometry" />
        </mxCell>
        <mxCell id="ANkwzQRA43zdDnE30-9h-112" value="&lt;font style=&quot;font-size: 16px; color: rgb(255, 255, 255);&quot;&gt;&lt;b&gt;User Mobile Application&lt;/b&gt;&lt;/font&gt;" style="text;html=1;align=left;verticalAlign=middle;whiteSpace=wrap;rounded=0;fontSize=24;" vertex="1" parent="1">
          <mxGeometry x="2362.49" y="434" width="229" height="31" as="geometry" />
        </mxCell>
        <mxCell id="ANkwzQRA43zdDnE30-9h-113" value="&lt;font style=&quot;color: rgb(255, 255, 255);&quot;&gt;Provides CMovie functionality for mobile devices (IOS, Android)&lt;/font&gt;" style="text;whiteSpace=wrap;html=1;" vertex="1" parent="1">
          <mxGeometry x="2324.24" y="490.5" width="265.25" height="42.5" as="geometry" />
        </mxCell>
        <mxCell id="ANkwzQRA43zdDnE30-9h-114" value="" style="sketch=0;pointerEvents=1;shadow=0;dashed=0;html=1;strokeColor=none;fillColor=#FFFFFF;aspect=fixed;labelPosition=center;verticalLabelPosition=bottom;verticalAlign=top;align=center;outlineConnect=0;shape=mxgraph.vvd.web_browser;fontColor=#FFFFFF;" vertex="1" parent="1">
          <mxGeometry x="2324.43" y="451.5" width="26.06" height="18.5" as="geometry" />
        </mxCell>
        <mxCell id="ANkwzQRA43zdDnE30-9h-115" value="&lt;font style=&quot;font-size: 16px; color: rgb(255, 255, 255);&quot;&gt;TypeScript, React Native&lt;/font&gt;" style="text;html=1;align=left;verticalAlign=middle;whiteSpace=wrap;rounded=0;fontSize=24;" vertex="1" parent="1">
          <mxGeometry x="2362.49" y="451.5" width="229" height="31" as="geometry" />
        </mxCell>
        <mxCell id="ANkwzQRA43zdDnE30-9h-116" value="" style="rounded=1;whiteSpace=wrap;html=1;fillColor=#2B87FF;strokeColor=none;shadow=1;" vertex="1" parent="1">
          <mxGeometry x="2611.74" y="428" width="281.75" height="126" as="geometry" />
        </mxCell>
        <mxCell id="ANkwzQRA43zdDnE30-9h-117" value="&lt;font style=&quot;font-size: 16px; color: rgb(255, 255, 255);&quot;&gt;&lt;b&gt;User TV Application&lt;/b&gt;&lt;/font&gt;" style="text;html=1;align=left;verticalAlign=middle;whiteSpace=wrap;rounded=0;fontSize=24;" vertex="1" parent="1">
          <mxGeometry x="2660.49" y="435" width="229" height="31" as="geometry" />
        </mxCell>
        <mxCell id="ANkwzQRA43zdDnE30-9h-118" value="&lt;span style=&quot;color: rgb(255, 255, 255);&quot;&gt;Provides CMovie limited functionality for TV devices&lt;/span&gt;" style="text;whiteSpace=wrap;html=1;" vertex="1" parent="1">
          <mxGeometry x="2622.24" y="491.5" width="265.25" height="42.5" as="geometry" />
        </mxCell>
        <mxCell id="ANkwzQRA43zdDnE30-9h-119" value="" style="sketch=0;pointerEvents=1;shadow=0;dashed=0;html=1;strokeColor=none;fillColor=#FFFFFF;aspect=fixed;labelPosition=center;verticalLabelPosition=bottom;verticalAlign=top;align=center;outlineConnect=0;shape=mxgraph.vvd.web_browser;fontColor=#FFFFFF;" vertex="1" parent="1">
          <mxGeometry x="2622.43" y="452.5" width="26.06" height="18.5" as="geometry" />
        </mxCell>
        <mxCell id="ANkwzQRA43zdDnE30-9h-120" value="&lt;font style=&quot;font-size: 16px; color: rgb(255, 255, 255);&quot;&gt;TypeScript, React Native&lt;/font&gt;" style="text;html=1;align=left;verticalAlign=middle;whiteSpace=wrap;rounded=0;fontSize=24;" vertex="1" parent="1">
          <mxGeometry x="2660.49" y="452.5" width="229" height="31" as="geometry" />
        </mxCell>
        <mxCell id="ANkwzQRA43zdDnE30-9h-121" value="" style="endArrow=classic;html=1;rounded=0;entryX=0.5;entryY=0;entryDx=0;entryDy=0;dashed=1;dashPattern=12 12;exitX=0.5;exitY=1;exitDx=0;exitDy=0;" edge="1" parent="1" source="ANkwzQRA43zdDnE30-9h-86" target="ANkwzQRA43zdDnE30-9h-94">
          <mxGeometry width="50" height="50" relative="1" as="geometry">
            <mxPoint x="1856.74" y="371" as="sourcePoint" />
            <mxPoint x="1359.74" y="476" as="targetPoint" />
          </mxGeometry>
        </mxCell>
        <mxCell id="ANkwzQRA43zdDnE30-9h-122" value="" style="endArrow=classic;html=1;rounded=0;entryX=0.5;entryY=0;entryDx=0;entryDy=0;dashed=1;dashPattern=12 12;exitX=0.5;exitY=1;exitDx=0;exitDy=0;" edge="1" parent="1" source="ANkwzQRA43zdDnE30-9h-92" target="ANkwzQRA43zdDnE30-9h-101">
          <mxGeometry width="50" height="50" relative="1" as="geometry">
            <mxPoint x="1863.74" y="352" as="sourcePoint" />
            <mxPoint x="1864.74" y="437" as="targetPoint" />
          </mxGeometry>
        </mxCell>
        <mxCell id="ANkwzQRA43zdDnE30-9h-123" value="" style="endArrow=classic;html=1;rounded=0;entryX=0.5;entryY=0;entryDx=0;entryDy=0;dashed=1;dashPattern=12 12;exitX=0.5;exitY=1;exitDx=0;exitDy=0;" edge="1" parent="1" source="ANkwzQRA43zdDnE30-9h-90" target="ANkwzQRA43zdDnE30-9h-111">
          <mxGeometry width="50" height="50" relative="1" as="geometry">
            <mxPoint x="2450.74" y="350" as="sourcePoint" />
            <mxPoint x="2164.74" y="437" as="targetPoint" />
          </mxGeometry>
        </mxCell>
        <mxCell id="ANkwzQRA43zdDnE30-9h-124" value="" style="endArrow=classic;html=1;rounded=0;entryX=0.5;entryY=0;entryDx=0;entryDy=0;dashed=1;dashPattern=12 12;exitX=0.5;exitY=1;exitDx=0;exitDy=0;" edge="1" parent="1" source="ANkwzQRA43zdDnE30-9h-90" target="ANkwzQRA43zdDnE30-9h-116">
          <mxGeometry width="50" height="50" relative="1" as="geometry">
            <mxPoint x="2459.74" y="352" as="sourcePoint" />
            <mxPoint x="2464.74" y="437" as="targetPoint" />
          </mxGeometry>
        </mxCell>
        <mxCell id="ANkwzQRA43zdDnE30-9h-125" value="" style="rounded=1;whiteSpace=wrap;html=1;fillColor=#2B87FF;strokeColor=none;shadow=1;" vertex="1" parent="1">
          <mxGeometry x="2167.75" y="683" width="281.75" height="126" as="geometry" />
        </mxCell>
        <mxCell id="ANkwzQRA43zdDnE30-9h-126" value="&lt;font style=&quot;font-size: 16px; color: rgb(255, 255, 255);&quot;&gt;&lt;b&gt;API Application&lt;/b&gt;&lt;/font&gt;" style="text;html=1;align=left;verticalAlign=middle;whiteSpace=wrap;rounded=0;fontSize=24;" vertex="1" parent="1">
          <mxGeometry x="2216.5" y="690" width="229" height="31" as="geometry" />
        </mxCell>
        <mxCell id="ANkwzQRA43zdDnE30-9h-127" value="&lt;font style=&quot;color: rgb(255, 255, 255);&quot;&gt;Provides CMovie functionality via a JSON/HTTPS API&lt;/font&gt;" style="text;whiteSpace=wrap;html=1;" vertex="1" parent="1">
          <mxGeometry x="2178.25" y="746.5" width="265.25" height="42.5" as="geometry" />
        </mxCell>
        <mxCell id="ANkwzQRA43zdDnE30-9h-129" value="&lt;font style=&quot;font-size: 16px; color: rgb(255, 255, 255);&quot;&gt;TypeScript, Node.js&lt;/font&gt;" style="text;html=1;align=left;verticalAlign=middle;whiteSpace=wrap;rounded=0;fontSize=24;" vertex="1" parent="1">
          <mxGeometry x="2216.5" y="707.5" width="229" height="31" as="geometry" />
        </mxCell>
        <mxCell id="ANkwzQRA43zdDnE30-9h-130" value="" style="sketch=0;pointerEvents=1;shadow=0;dashed=0;html=1;strokeColor=none;fillColor=#FFFFFF;aspect=fixed;labelPosition=center;verticalLabelPosition=bottom;verticalAlign=top;align=center;outlineConnect=0;shape=mxgraph.vvd.cpu;" vertex="1" parent="1">
          <mxGeometry x="2179.76" y="704" width="30" height="30" as="geometry" />
        </mxCell>
        <mxCell id="ANkwzQRA43zdDnE30-9h-131" value="" style="rounded=1;whiteSpace=wrap;html=1;fillColor=#2B87FF;strokeColor=none;shadow=1;" vertex="1" parent="1">
          <mxGeometry x="2167.7499999999995" y="872" width="281.75" height="126" as="geometry" />
        </mxCell>
        <mxCell id="ANkwzQRA43zdDnE30-9h-132" value="&lt;font style=&quot;font-size: 16px; color: rgb(255, 255, 255);&quot;&gt;&lt;b&gt;Database&lt;/b&gt;&lt;/font&gt;" style="text;html=1;align=left;verticalAlign=middle;whiteSpace=wrap;rounded=0;fontSize=24;" vertex="1" parent="1">
          <mxGeometry x="2216.4999999999995" y="879" width="229" height="31" as="geometry" />
        </mxCell>
        <mxCell id="ANkwzQRA43zdDnE30-9h-133" value="&lt;font style=&quot;color: rgb(255, 255, 255);&quot;&gt;Stores video metadata, comments, users, users&#39;s preferences and subscriptions&lt;/font&gt;" style="text;whiteSpace=wrap;html=1;" vertex="1" parent="1">
          <mxGeometry x="2178.2499999999995" y="935.5" width="265.25" height="42.5" as="geometry" />
        </mxCell>
        <mxCell id="ANkwzQRA43zdDnE30-9h-134" value="&lt;font style=&quot;font-size: 16px; color: rgb(255, 255, 255);&quot;&gt;Postgres&lt;/font&gt;" style="text;html=1;align=left;verticalAlign=middle;whiteSpace=wrap;rounded=0;fontSize=24;" vertex="1" parent="1">
          <mxGeometry x="2216.4999999999995" y="896.5" width="229" height="31" as="geometry" />
        </mxCell>
        <mxCell id="ANkwzQRA43zdDnE30-9h-136" value="" style="rounded=1;whiteSpace=wrap;html=1;fillColor=#2B87FF;strokeColor=none;shadow=1;" vertex="1" parent="1">
          <mxGeometry x="1713.7399999999998" y="683" width="281.75" height="126" as="geometry" />
        </mxCell>
        <mxCell id="ANkwzQRA43zdDnE30-9h-137" value="&lt;font style=&quot;font-size: 16px; color: rgb(255, 255, 255);&quot;&gt;&lt;b&gt;Blob Storage + CDN&lt;/b&gt;&lt;/font&gt;" style="text;html=1;align=left;verticalAlign=middle;whiteSpace=wrap;rounded=0;fontSize=24;" vertex="1" parent="1">
          <mxGeometry x="1762.4899999999998" y="690" width="229" height="31" as="geometry" />
        </mxCell>
        <mxCell id="ANkwzQRA43zdDnE30-9h-138" value="&lt;font style=&quot;color: rgb(255, 255, 255);&quot;&gt;Stores videos&lt;/font&gt;" style="text;whiteSpace=wrap;html=1;" vertex="1" parent="1">
          <mxGeometry x="1724.2399999999998" y="746.5" width="265.25" height="42.5" as="geometry" />
        </mxCell>
        <mxCell id="ANkwzQRA43zdDnE30-9h-139" value="&lt;font style=&quot;font-size: 16px; color: rgb(255, 255, 255);&quot;&gt;S3 (CloudFront, Cloudflare)&lt;/font&gt;" style="text;html=1;align=left;verticalAlign=middle;whiteSpace=wrap;rounded=0;fontSize=24;" vertex="1" parent="1">
          <mxGeometry x="1762.4899999999998" y="707.5" width="229" height="31" as="geometry" />
        </mxCell>
        <mxCell id="ANkwzQRA43zdDnE30-9h-141" value="" style="endArrow=classic;html=1;rounded=0;entryX=0.5;entryY=0;entryDx=0;entryDy=0;dashed=1;dashPattern=12 12;exitX=0.5;exitY=1;exitDx=0;exitDy=0;" edge="1" parent="1" source="ANkwzQRA43zdDnE30-9h-111" target="ANkwzQRA43zdDnE30-9h-125">
          <mxGeometry width="50" height="50" relative="1" as="geometry">
            <mxPoint x="2658.6699999999996" y="728" as="sourcePoint" />
            <mxPoint x="2659.6699999999996" y="813" as="targetPoint" />
          </mxGeometry>
        </mxCell>
        <mxCell id="ANkwzQRA43zdDnE30-9h-142" value="" style="endArrow=classic;html=1;rounded=0;entryX=0.75;entryY=0;entryDx=0;entryDy=0;dashed=1;dashPattern=12 12;exitX=0.5;exitY=1;exitDx=0;exitDy=0;" edge="1" parent="1" source="ANkwzQRA43zdDnE30-9h-116" target="ANkwzQRA43zdDnE30-9h-125">
          <mxGeometry width="50" height="50" relative="1" as="geometry">
            <mxPoint x="2473.74" y="362" as="sourcePoint" />
            <mxPoint x="2474.74" y="447" as="targetPoint" />
          </mxGeometry>
        </mxCell>
        <mxCell id="ANkwzQRA43zdDnE30-9h-143" value="" style="endArrow=classic;html=1;rounded=0;entryX=0.5;entryY=0;entryDx=0;entryDy=0;dashed=1;dashPattern=12 12;exitX=0.5;exitY=1;exitDx=0;exitDy=0;" edge="1" parent="1" source="ANkwzQRA43zdDnE30-9h-101" target="ANkwzQRA43zdDnE30-9h-125">
          <mxGeometry width="50" height="50" relative="1" as="geometry">
            <mxPoint x="2762.74" y="564" as="sourcePoint" />
            <mxPoint x="2466.74" y="629" as="targetPoint" />
          </mxGeometry>
        </mxCell>
        <mxCell id="ANkwzQRA43zdDnE30-9h-144" value="" style="endArrow=classic;html=1;rounded=0;entryX=0.25;entryY=0;entryDx=0;entryDy=0;dashed=1;dashPattern=12 12;exitX=0.5;exitY=1;exitDx=0;exitDy=0;" edge="1" parent="1" source="ANkwzQRA43zdDnE30-9h-94" target="ANkwzQRA43zdDnE30-9h-125">
          <mxGeometry width="50" height="50" relative="1" as="geometry">
            <mxPoint x="2164.74" y="563" as="sourcePoint" />
            <mxPoint x="2466.74" y="629" as="targetPoint" />
          </mxGeometry>
        </mxCell>
        <mxCell id="ANkwzQRA43zdDnE30-9h-150" value="" style="rounded=1;whiteSpace=wrap;html=1;fillColor=#999999;strokeColor=none;shadow=1;" vertex="1" parent="1">
          <mxGeometry x="2940" y="683" width="281.75" height="126" as="geometry" />
        </mxCell>
        <mxCell id="ANkwzQRA43zdDnE30-9h-151" value="&lt;font style=&quot;font-size: 16px; color: rgb(255, 255, 255);&quot;&gt;&lt;b&gt;Payment Provider&lt;/b&gt;&lt;/font&gt;" style="text;html=1;align=left;verticalAlign=middle;whiteSpace=wrap;rounded=0;fontSize=24;" vertex="1" parent="1">
          <mxGeometry x="2988.75" y="690" width="229" height="31" as="geometry" />
        </mxCell>
        <mxCell id="ANkwzQRA43zdDnE30-9h-152" value="&lt;span style=&quot;color: rgb(255, 255, 255);&quot;&gt;Handles subscriptions and billing. Provides webhook to get payment status&lt;/span&gt;" style="text;whiteSpace=wrap;html=1;" vertex="1" parent="1">
          <mxGeometry x="2950.5" y="746.5" width="265.25" height="42.5" as="geometry" />
        </mxCell>
        <mxCell id="ANkwzQRA43zdDnE30-9h-153" value="&lt;font style=&quot;font-size: 16px; color: rgb(255, 255, 255);&quot;&gt;Stripe&lt;/font&gt;" style="text;html=1;align=left;verticalAlign=middle;whiteSpace=wrap;rounded=0;fontSize=24;" vertex="1" parent="1">
          <mxGeometry x="2988.75" y="707.5" width="229" height="31" as="geometry" />
        </mxCell>
        <mxCell id="ANkwzQRA43zdDnE30-9h-154" value="" style="sketch=0;pointerEvents=1;shadow=0;dashed=0;html=1;strokeColor=none;fillColor=#FFFFFF;aspect=fixed;labelPosition=center;verticalLabelPosition=bottom;verticalAlign=top;align=center;outlineConnect=0;shape=mxgraph.vvd.cpu;" vertex="1" parent="1">
          <mxGeometry x="2952.01" y="704" width="30" height="30" as="geometry" />
        </mxCell>
        <mxCell id="ANkwzQRA43zdDnE30-9h-155" value="" style="endArrow=classic;html=1;rounded=0;entryX=0;entryY=0.5;entryDx=0;entryDy=0;dashed=1;dashPattern=12 12;exitX=1;exitY=0.5;exitDx=0;exitDy=0;" edge="1" parent="1" source="ANkwzQRA43zdDnE30-9h-125" target="ANkwzQRA43zdDnE30-9h-150">
          <mxGeometry width="50" height="50" relative="1" as="geometry">
            <mxPoint x="2762.74" y="564" as="sourcePoint" />
            <mxPoint x="2324.74" y="643" as="targetPoint" />
          </mxGeometry>
        </mxCell>
        <mxCell id="ANkwzQRA43zdDnE30-9h-157" value="" style="endArrow=classic;html=1;rounded=0;entryX=0.5;entryY=0;entryDx=0;entryDy=0;dashed=1;dashPattern=12 12;exitX=0.5;exitY=1;exitDx=0;exitDy=0;" edge="1" parent="1" source="ANkwzQRA43zdDnE30-9h-125" target="ANkwzQRA43zdDnE30-9h-131">
          <mxGeometry width="50" height="50" relative="1" as="geometry">
            <mxPoint x="2324.74" y="769" as="sourcePoint" />
            <mxPoint x="2117.74" y="820" as="targetPoint" />
          </mxGeometry>
        </mxCell>
        <mxCell id="ANkwzQRA43zdDnE30-9h-158" value="Assumptions &amp;amp; Estimations" style="text;html=1;align=left;verticalAlign=middle;whiteSpace=wrap;rounded=0;fontSize=32;fontStyle=1" vertex="1" parent="1">
          <mxGeometry x="870" y="1209" width="754" height="38" as="geometry" />
        </mxCell>
        <mxCell id="ANkwzQRA43zdDnE30-9h-159" value="CMovie Streaming Platform" style="text;html=1;align=left;verticalAlign=middle;whiteSpace=wrap;rounded=0;fontSize=24;" vertex="1" parent="1">
          <mxGeometry x="870" y="1247" width="754" height="31" as="geometry" />
        </mxCell>
        <mxCell id="ANkwzQRA43zdDnE30-9h-162" value="" style="rounded=1;whiteSpace=wrap;html=1;fillColor=#67AB9F;strokeColor=none;shadow=1;" vertex="1" parent="1">
          <mxGeometry x="1278.74" y="274" width="200" height="81" as="geometry" />
        </mxCell>
        <mxCell id="ANkwzQRA43zdDnE30-9h-163" value="&lt;b style=&quot;color: rgb(255, 255, 255); font-size: 16px;&quot;&gt;End-User&lt;/b&gt;" style="text;html=1;align=left;verticalAlign=middle;whiteSpace=wrap;rounded=0;fontSize=24;" vertex="1" parent="1">
          <mxGeometry x="1312.49" y="282.5" width="148" height="31" as="geometry" />
        </mxCell>
        <mxCell id="ANkwzQRA43zdDnE30-9h-164" value="&lt;span style=&quot;color: rgb(255, 255, 255);&quot;&gt;Consumers using mobile or web to browse and watch content.&lt;/span&gt;" style="text;whiteSpace=wrap;html=1;" vertex="1" parent="1">
          <mxGeometry x="1290.11" y="311" width="178.25" height="36" as="geometry" />
        </mxCell>
        <mxCell id="ANkwzQRA43zdDnE30-9h-165" value="" style="sketch=0;outlineConnect=0;fontColor=#232F3E;gradientColor=none;fillColor=#FFFFFF;strokeColor=none;dashed=0;verticalLabelPosition=bottom;verticalAlign=top;align=center;html=1;fontSize=12;fontStyle=0;aspect=fixed;pointerEvents=1;shape=mxgraph.aws4.user;" vertex="1" parent="1">
          <mxGeometry x="1290.11" y="290.25" width="18.5" height="18.5" as="geometry" />
        </mxCell>
        <mxCell id="ANkwzQRA43zdDnE30-9h-167" value="" style="endArrow=classic;html=1;rounded=0;entryX=1;entryY=0.5;entryDx=0;entryDy=0;dashed=1;dashPattern=12 12;exitX=0;exitY=0.5;exitDx=0;exitDy=0;" edge="1" parent="1" source="ANkwzQRA43zdDnE30-9h-125" target="ANkwzQRA43zdDnE30-9h-136">
          <mxGeometry width="50" height="50" relative="1" as="geometry">
            <mxPoint x="2318.74" y="819" as="sourcePoint" />
            <mxPoint x="2318.74" y="869" as="targetPoint" />
          </mxGeometry>
        </mxCell>
        <mxCell id="ANkwzQRA43zdDnE30-9h-170" value="&lt;font style=&quot;color: rgb(0, 0, 0); background-color: light-dark(#ffffff, var(--ge-dark-color, #121212));&quot;&gt;Reads from and writes to (SQL, TCP)&lt;/font&gt;" style="text;whiteSpace=wrap;html=1;align=center;" vertex="1" parent="1">
          <mxGeometry x="2249.31" y="813" width="118.62" height="41" as="geometry" />
        </mxCell>
        <mxCell id="ANkwzQRA43zdDnE30-9h-171" value="&lt;font style=&quot;color: rgb(0, 0, 0); background-color: light-dark(#ffffff, var(--ge-dark-color, #121212));&quot;&gt;Generates signed URLs for content uploading and viewing&lt;/font&gt;" style="text;whiteSpace=wrap;html=1;align=center;" vertex="1" parent="1">
          <mxGeometry x="2033.74" y="721" width="118.62" height="52" as="geometry" />
        </mxCell>
        <mxCell id="ANkwzQRA43zdDnE30-9h-173" value="&lt;span style=&quot;background-color: rgb(255, 255, 255);&quot;&gt;Makes API calls to (JSON/HTTPs)&lt;/span&gt;" style="text;whiteSpace=wrap;html=1;align=center;" vertex="1" parent="1">
          <mxGeometry x="2171.1299999999997" y="586" width="118.62" height="41" as="geometry" />
        </mxCell>
        <mxCell id="ANkwzQRA43zdDnE30-9h-174" value="&lt;span style=&quot;background-color: rgb(255, 255, 255);&quot;&gt;Makes API calls to (JSON/HTTPs)&lt;/span&gt;" style="text;whiteSpace=wrap;html=1;align=center;" vertex="1" parent="1">
          <mxGeometry x="2333.74" y="586" width="118.62" height="41" as="geometry" />
        </mxCell>
        <mxCell id="ANkwzQRA43zdDnE30-9h-175" value="&lt;span style=&quot;background-color: rgb(255, 255, 255);&quot;&gt;Makes API calls to (JSON/HTTPs)&lt;/span&gt;" style="text;whiteSpace=wrap;html=1;align=center;" vertex="1" parent="1">
          <mxGeometry x="2547.74" y="586" width="118.62" height="41" as="geometry" />
        </mxCell>
        <mxCell id="ANkwzQRA43zdDnE30-9h-176" value="&lt;span style=&quot;background-color: rgb(255, 255, 255);&quot;&gt;Makes API calls to (JSON/HTTPs)&lt;/span&gt;" style="text;whiteSpace=wrap;html=1;align=center;" vertex="1" parent="1">
          <mxGeometry x="1940.74" y="586" width="118.62" height="41" as="geometry" />
        </mxCell>
        <mxCell id="ANkwzQRA43zdDnE30-9h-177" value="&lt;span style=&quot;background-color: rgb(255, 255, 255);&quot;&gt;Makes API calls to (JSON/HTTPs)&lt;/span&gt;" style="text;whiteSpace=wrap;html=1;align=center;" vertex="1" parent="1">
          <mxGeometry x="2625.74" y="718" width="118.62" height="41" as="geometry" />
        </mxCell>
        <mxCell id="ANkwzQRA43zdDnE30-9h-178" value="&lt;span style=&quot;background-color: light-dark(#ffffff, var(--ge-dark-color, #121212));&quot;&gt;Browse video catalog, watch, add comments, manages subscription&lt;/span&gt;" style="text;whiteSpace=wrap;html=1;align=center;" vertex="1" parent="1">
          <mxGeometry x="2374.06" y="345" width="165.62" height="51" as="geometry" />
        </mxCell>
        <mxCell id="ANkwzQRA43zdDnE30-9h-179" value="&lt;span style=&quot;background-color: light-dark(#ffffff, var(--ge-dark-color, #121212));&quot;&gt;Browse video catalog, watch, add comments&lt;/span&gt;" style="text;whiteSpace=wrap;html=1;align=center;" vertex="1" parent="1">
          <mxGeometry x="2573.4599999999996" y="351.5" width="124" height="38" as="geometry" />
        </mxCell>
        <mxCell id="ANkwzQRA43zdDnE30-9h-180" value="&lt;span style=&quot;background-color: light-dark(#ffffff, var(--ge-dark-color, #121212));&quot;&gt;Browse video catalog, watch, add comments, manages subscription&lt;/span&gt;" style="text;whiteSpace=wrap;html=1;align=center;" vertex="1" parent="1">
          <mxGeometry x="2174.74" y="345" width="165.62" height="51" as="geometry" />
        </mxCell>
        <mxCell id="ANkwzQRA43zdDnE30-9h-181" value="&lt;span style=&quot;background-color: light-dark(#ffffff, var(--ge-dark-color, #121212));&quot;&gt;Upload video, sets metadata, view metrics&lt;/span&gt;" style="text;whiteSpace=wrap;html=1;align=center;" vertex="1" parent="1">
          <mxGeometry x="1783.74" y="334" width="131" height="38" as="geometry" />
        </mxCell>
        <mxCell id="ANkwzQRA43zdDnE30-9h-189" value="&lt;font style=&quot;font-size: 16px;&quot;&gt;Diagram key&lt;/font&gt;" style="text;html=1;align=left;verticalAlign=middle;whiteSpace=wrap;rounded=0;fontSize=24;fontStyle=1" vertex="1" parent="1">
          <mxGeometry x="864" y="951" width="326" height="21.25" as="geometry" />
        </mxCell>
        <mxCell id="ANkwzQRA43zdDnE30-9h-190" value="" style="rounded=1;whiteSpace=wrap;html=1;arcSize=5;shadow=1;dashed=1;movable=1;resizable=1;rotatable=1;deletable=1;editable=1;locked=0;connectable=1;" vertex="1" parent="1">
          <mxGeometry x="2954" y="64" width="327" height="185" as="geometry" />
        </mxCell>
        <mxCell id="ANkwzQRA43zdDnE30-9h-191" value="" style="rounded=1;whiteSpace=wrap;html=1;fillColor=#67AB9F;strokeColor=none;shadow=1;" vertex="1" parent="1">
          <mxGeometry x="2967" y="75" width="42" height="45" as="geometry" />
        </mxCell>
        <mxCell id="ANkwzQRA43zdDnE30-9h-192" value="" style="sketch=0;outlineConnect=0;fontColor=#232F3E;gradientColor=none;fillColor=#FFFFFF;strokeColor=none;dashed=0;verticalLabelPosition=bottom;verticalAlign=top;align=center;html=1;fontSize=12;fontStyle=0;aspect=fixed;pointerEvents=1;shape=mxgraph.aws4.user;" vertex="1" parent="1">
          <mxGeometry x="2974" y="83" width="28" height="28" as="geometry" />
        </mxCell>
        <mxCell id="ANkwzQRA43zdDnE30-9h-193" value="" style="rounded=1;whiteSpace=wrap;html=1;fillColor=#2B87FF;strokeColor=none;shadow=1;" vertex="1" parent="1">
          <mxGeometry x="3126" y="74.25" width="43" height="45.5" as="geometry" />
        </mxCell>
        <mxCell id="ANkwzQRA43zdDnE30-9h-194" value="" style="sketch=0;pointerEvents=1;shadow=0;dashed=0;html=1;strokeColor=none;fillColor=#FFFFFF;aspect=fixed;labelPosition=center;verticalLabelPosition=bottom;verticalAlign=top;align=center;outlineConnect=0;shape=mxgraph.vvd.cpu;" vertex="1" parent="1">
          <mxGeometry x="3133" y="82" width="30" height="30" as="geometry" />
        </mxCell>
        <mxCell id="ANkwzQRA43zdDnE30-9h-195" value="" style="rounded=1;whiteSpace=wrap;html=1;fillColor=#999999;strokeColor=none;shadow=1;" vertex="1" parent="1">
          <mxGeometry x="2967" y="130" width="45" height="46" as="geometry" />
        </mxCell>
        <mxCell id="ANkwzQRA43zdDnE30-9h-196" value="" style="sketch=0;pointerEvents=1;shadow=0;dashed=0;html=1;strokeColor=none;fillColor=#FFFFFF;aspect=fixed;labelPosition=center;verticalLabelPosition=bottom;verticalAlign=top;align=center;outlineConnect=0;shape=mxgraph.vvd.cpu;" vertex="1" parent="1">
          <mxGeometry x="2975" y="138" width="30" height="30" as="geometry" />
        </mxCell>
        <mxCell id="ANkwzQRA43zdDnE30-9h-197" value="&lt;span style=&quot;background-color: light-dark(#ffffff, var(--ge-dark-color, #121212));&quot;&gt;System user&lt;/span&gt;" style="text;whiteSpace=wrap;html=1;align=left;" vertex="1" parent="1">
          <mxGeometry x="3021.12" y="84.25" width="75.88" height="26.5" as="geometry" />
        </mxCell>
        <mxCell id="ANkwzQRA43zdDnE30-9h-198" value="&lt;span style=&quot;background-color: light-dark(#ffffff, var(--ge-dark-color, #121212));&quot;&gt;Internal container&lt;/span&gt;" style="text;whiteSpace=wrap;html=1;align=left;" vertex="1" parent="1">
          <mxGeometry x="3177" y="83" width="100" height="26.5" as="geometry" />
        </mxCell>
        <mxCell id="ANkwzQRA43zdDnE30-9h-199" value="&lt;span style=&quot;background-color: light-dark(#ffffff, var(--ge-dark-color, #121212));&quot;&gt;External system&lt;/span&gt;" style="text;whiteSpace=wrap;html=1;align=left;" vertex="1" parent="1">
          <mxGeometry x="3021.12" y="139.75" width="92.88" height="26.5" as="geometry" />
        </mxCell>
        <mxCell id="ANkwzQRA43zdDnE30-9h-200" value="" style="endArrow=classic;html=1;rounded=0;exitX=0.5;exitY=1;exitDx=0;exitDy=0;dashed=1;dashPattern=12 12;" edge="1" parent="1">
          <mxGeometry width="50" height="50" relative="1" as="geometry">
            <mxPoint x="3126.5" y="152.51999999999998" as="sourcePoint" />
            <mxPoint x="3169.5" y="153" as="targetPoint" />
          </mxGeometry>
        </mxCell>
        <mxCell id="ANkwzQRA43zdDnE30-9h-201" value="&lt;span style=&quot;background-color: light-dark(#ffffff, var(--ge-dark-color, #121212));&quot;&gt;Relationship&lt;/span&gt;" style="text;whiteSpace=wrap;html=1;align=left;" vertex="1" parent="1">
          <mxGeometry x="3177" y="141.5" width="93.76" height="26.5" as="geometry" />
        </mxCell>
        <mxCell id="ANkwzQRA43zdDnE30-9h-202" value="&lt;font style=&quot;font-size: 16px;&quot;&gt;Diagram key&lt;/font&gt;" style="text;html=1;align=left;verticalAlign=middle;whiteSpace=wrap;rounded=0;fontSize=24;fontStyle=1" vertex="1" parent="1">
          <mxGeometry x="2955.88" y="35" width="326" height="21.25" as="geometry" />
        </mxCell>
        <mxCell id="ANkwzQRA43zdDnE30-9h-206" value="" style="sketch=0;outlineConnect=0;fontColor=#232F3E;gradientColor=none;fillColor=#FFFFFF;strokeColor=none;dashed=0;verticalLabelPosition=bottom;verticalAlign=top;align=center;html=1;fontSize=12;fontStyle=0;aspect=fixed;pointerEvents=1;shape=mxgraph.aws4.traditional_server;" vertex="1" parent="1">
          <mxGeometry x="1732.61" y="703" width="17.88" height="31" as="geometry" />
        </mxCell>
        <mxCell id="ANkwzQRA43zdDnE30-9h-207" value="" style="sketch=0;outlineConnect=0;fontColor=#232F3E;gradientColor=none;fillColor=#FFFFFF;strokeColor=none;dashed=0;verticalLabelPosition=bottom;verticalAlign=top;align=center;html=1;fontSize=12;fontStyle=0;aspect=fixed;pointerEvents=1;shape=mxgraph.aws4.traditional_server;" vertex="1" parent="1">
          <mxGeometry x="2185.82" y="890" width="17.88" height="31" as="geometry" />
        </mxCell>
        <mxCell id="ANkwzQRA43zdDnE30-9h-208" value="" style="rounded=1;whiteSpace=wrap;html=1;fillColor=#2B87FF;strokeColor=none;shadow=1;" vertex="1" parent="1">
          <mxGeometry x="2967" y="187" width="43" height="45.5" as="geometry" />
        </mxCell>
        <mxCell id="ANkwzQRA43zdDnE30-9h-210" value="&lt;span style=&quot;background-color: light-dark(#ffffff, var(--ge-dark-color, #121212));&quot;&gt;Container, database&lt;/span&gt;" style="text;whiteSpace=wrap;html=1;align=left;" vertex="1" parent="1">
          <mxGeometry x="3018" y="191.25" width="94" height="26.5" as="geometry" />
        </mxCell>
        <mxCell id="ANkwzQRA43zdDnE30-9h-211" value="" style="sketch=0;outlineConnect=0;fontColor=#232F3E;gradientColor=none;fillColor=#FFFFFF;strokeColor=none;dashed=0;verticalLabelPosition=bottom;verticalAlign=top;align=center;html=1;fontSize=12;fontStyle=0;aspect=fixed;pointerEvents=1;shape=mxgraph.aws4.traditional_server;" vertex="1" parent="1">
          <mxGeometry x="2979.06" y="194.25" width="17.88" height="31" as="geometry" />
        </mxCell>
        <mxCell id="ANkwzQRA43zdDnE30-9h-215" value="" style="rounded=1;whiteSpace=wrap;html=1;fillColor=#2B87FF;strokeColor=none;shadow=1;" vertex="1" parent="1">
          <mxGeometry x="3126" y="187" width="43" height="45.5" as="geometry" />
        </mxCell>
        <mxCell id="ANkwzQRA43zdDnE30-9h-216" value="&lt;span style=&quot;background-color: light-dark(#ffffff, var(--ge-dark-color, #121212));&quot;&gt;Container, application&lt;/span&gt;" style="text;whiteSpace=wrap;html=1;align=left;" vertex="1" parent="1">
          <mxGeometry x="3179.38" y="191.25" width="89" height="26.5" as="geometry" />
        </mxCell>
        <mxCell id="ANkwzQRA43zdDnE30-9h-218" value="" style="sketch=0;pointerEvents=1;shadow=0;dashed=0;html=1;strokeColor=none;fillColor=#FFFFFF;aspect=fixed;labelPosition=center;verticalLabelPosition=bottom;verticalAlign=top;align=center;outlineConnect=0;shape=mxgraph.vvd.web_browser;fontColor=#FFFFFF;" vertex="1" parent="1">
          <mxGeometry x="3134.97" y="199.75" width="26.06" height="18.5" as="geometry" />
        </mxCell>
        <mxCell id="ANkwzQRA43zdDnE30-9h-220" value="&lt;div&gt;&lt;font style=&quot;color: rgb(0, 0, 0); background-color: light-dark(#ffffff, var(--ge-dark-color, #121212));&quot;&gt;&lt;b&gt;General Growth &amp;amp; Traffic Patterns&lt;/b&gt;&lt;/font&gt;&lt;/div&gt;&lt;div&gt;&lt;font style=&quot;color: rgb(0, 0, 0); background-color: light-dark(#ffffff, var(--ge-dark-color, #121212));&quot;&gt;&lt;br&gt;&lt;/font&gt;&lt;/div&gt;&lt;div&gt;&lt;font style=&quot;color: rgb(0, 0, 0); background-color: light-dark(#ffffff, var(--ge-dark-color, #121212));&quot;&gt;-&amp;nbsp;&lt;/font&gt;&lt;span style=&quot;background-color: transparent; color: light-dark(rgb(0, 0, 0), rgb(255, 255, 255));&quot; data-end=&quot;343&quot; data-start=&quot;327&quot;&gt;Growth rate:&lt;/span&gt;&lt;span style=&quot;background-color: transparent; color: light-dark(rgb(0, 0, 0), rgb(255, 255, 255));&quot;&gt; 10% Year-over-Year (YoY)&lt;/span&gt;&lt;/div&gt;&lt;div&gt;&lt;span style=&quot;background-color: transparent; color: light-dark(rgb(0, 0, 0), rgb(255, 255, 255));&quot;&gt;-&amp;nbsp;&lt;/span&gt;&lt;span style=&quot;background-color: transparent; color: light-dark(rgb(0, 0, 0), rgb(255, 255, 255));&quot;&gt;DAU&amp;nbsp;&lt;/span&gt;&lt;span style=&quot;background-color: transparent; color: light-dark(rgb(0, 0, 0), rgb(255, 255, 255));&quot;&gt;Normal days: 25% of peak DAU&lt;/span&gt;&lt;/div&gt;&lt;div&gt;&lt;span style=&quot;background-color: transparent; color: light-dark(rgb(0, 0, 0), rgb(255, 255, 255));&quot;&gt;- DAU&amp;nbsp;&lt;/span&gt;&lt;span style=&quot;background-color: transparent; color: light-dark(rgb(0, 0, 0), rgb(255, 255, 255));&quot;&gt;During new releases: ~100% peak DAU&lt;/span&gt;&lt;/div&gt;&lt;div&gt;&lt;span style=&quot;background-color: transparent; color: light-dark(rgb(0, 0, 0), rgb(255, 255, 255));&quot;&gt;-&amp;nbsp;&lt;/span&gt;&lt;span style=&quot;background-color: transparent; color: light-dark(rgb(0, 0, 0), rgb(255, 255, 255));&quot; data-end=&quot;529&quot; data-start=&quot;504&quot;&gt;Traffic distribution:&lt;/span&gt;&lt;span style=&quot;background-color: transparent; color: light-dark(rgb(0, 0, 0), rgb(255, 255, 255));&quot;&gt; Evenly split among 4 platforms: Frontend, iOS, Android, TV&lt;/span&gt;&lt;/div&gt;&lt;div&gt;&lt;span style=&quot;background-color: transparent; color: light-dark(rgb(0, 0, 0), rgb(255, 255, 255));&quot;&gt;&lt;br&gt;&lt;/span&gt;&lt;/div&gt;&lt;div&gt;&lt;b&gt;User and Traffic Load&lt;/b&gt;&lt;span style=&quot;background-color: transparent; color: light-dark(rgb(0, 0, 0), rgb(255, 255, 255));&quot;&gt;&lt;/span&gt;&lt;/div&gt;&lt;div&gt;&lt;br&gt;&lt;/div&gt;&lt;div&gt;-&amp;nbsp;&lt;span style=&quot;background-color: transparent; color: light-dark(rgb(0, 0, 0), rgb(255, 255, 255));&quot; data-end=&quot;683&quot; data-start=&quot;670&quot;&gt;Peak DAU:&lt;/span&gt;&lt;span style=&quot;background-color: transparent; color: light-dark(rgb(0, 0, 0), rgb(255, 255, 255));&quot;&gt; 200 million users&lt;/span&gt;&lt;/div&gt;&lt;div&gt;&lt;span style=&quot;background-color: transparent; color: light-dark(rgb(0, 0, 0), rgb(255, 255, 255));&quot;&gt;-&amp;nbsp;&lt;/span&gt;&lt;span style=&quot;background-color: transparent; color: light-dark(rgb(0, 0, 0), rgb(255, 255, 255));&quot; data-end=&quot;745&quot; data-start=&quot;706&quot;&gt;Requests per second (RPS) per user:&lt;/span&gt;&lt;span style=&quot;background-color: transparent; color: light-dark(rgb(0, 0, 0), rgb(255, 255, 255));&quot;&gt; 1&lt;/span&gt;&lt;/div&gt;&lt;div&gt;&lt;span style=&quot;background-color: transparent; color: light-dark(rgb(0, 0, 0), rgb(255, 255, 255));&quot;&gt;-&amp;nbsp;&lt;/span&gt;&lt;span style=&quot;background-color: transparent; color: light-dark(rgb(0, 0, 0), rgb(255, 255, 255));&quot;&gt;Calculated Peak RPS: 2,500&lt;/span&gt;&lt;/div&gt;&lt;div&gt;&lt;span style=&quot;background-color: transparent; color: light-dark(rgb(0, 0, 0), rgb(255, 255, 255));&quot;&gt;-&amp;nbsp;&lt;/span&gt;&lt;span style=&quot;background-color: transparent; color: light-dark(rgb(0, 0, 0), rgb(255, 255, 255));&quot; data-end=&quot;979&quot; data-start=&quot;947&quot;&gt;Peak data consumption per user:&lt;/span&gt;&lt;span style=&quot;background-color: transparent; color: light-dark(rgb(0, 0, 0), rgb(255, 255, 255));&quot;&gt; 10 GB&lt;/span&gt;&lt;/div&gt;&lt;div&gt;&lt;span style=&quot;background-color: transparent; color: light-dark(rgb(0, 0, 0), rgb(255, 255, 255));&quot;&gt;&lt;br&gt;&lt;/span&gt;&lt;/div&gt;&lt;div&gt;&lt;b&gt;File Storage (Video Content)&lt;/b&gt;&lt;/div&gt;&lt;div&gt;&lt;br&gt;&lt;/div&gt;&lt;div&gt;-&amp;nbsp;&lt;span style=&quot;background-color: transparent; color: light-dark(rgb(0, 0, 0), rgb(255, 255, 255));&quot; data-end=&quot;1058&quot; data-start=&quot;1037&quot;&gt;Number of videos:&lt;/span&gt;&lt;span style=&quot;background-color: transparent; color: light-dark(rgb(0, 0, 0), rgb(255, 255, 255));&quot;&gt; 15,000&lt;/span&gt;&lt;/div&gt;&lt;div&gt;&lt;span style=&quot;background-color: transparent; color: light-dark(rgb(0, 0, 0), rgb(255, 255, 255));&quot;&gt;-&amp;nbsp;&lt;/span&gt;&lt;span style=&quot;background-color: transparent; color: light-dark(rgb(0, 0, 0), rgb(255, 255, 255));&quot; data-end=&quot;1091&quot; data-start=&quot;1070&quot;&gt;Video size range:&lt;/span&gt;&lt;span style=&quot;background-color: transparent; color: light-dark(rgb(0, 0, 0), rgb(255, 255, 255));&quot;&gt; 10 MB to 150 GB&lt;/span&gt;&lt;/div&gt;&lt;div&gt;&lt;span style=&quot;background-color: transparent; color: light-dark(rgb(0, 0, 0), rgb(255, 255, 255));&quot;&gt;-&amp;nbsp;&lt;/span&gt;&lt;span style=&quot;background-color: transparent; color: light-dark(rgb(0, 0, 0), rgb(255, 255, 255));&quot; data-end=&quot;1135&quot; data-start=&quot;1112&quot;&gt;Average video size:&lt;/span&gt;&lt;span style=&quot;background-color: transparent; color: light-dark(rgb(0, 0, 0), rgb(255, 255, 255));&quot;&gt; 10 GB&lt;/span&gt;&lt;/div&gt;&lt;div&gt;&lt;span style=&quot;background-color: transparent; color: light-dark(rgb(0, 0, 0), rgb(255, 255, 255));&quot;&gt;-&amp;nbsp;&lt;/span&gt;&lt;span style=&quot;background-color: transparent; color: light-dark(rgb(0, 0, 0), rgb(255, 255, 255));&quot;&gt;Estimated total video storage: 150 TB&lt;/span&gt;&lt;/div&gt;&lt;div&gt;&lt;span style=&quot;background-color: transparent; color: light-dark(rgb(0, 0, 0), rgb(255, 255, 255));&quot;&gt;&lt;br&gt;&lt;/span&gt;&lt;/div&gt;&lt;div&gt;&lt;b&gt;Data Storage (Metadata &amp;amp; User Data)&lt;/b&gt;&lt;span style=&quot;background-color: transparent; color: light-dark(rgb(0, 0, 0), rgb(255, 255, 255));&quot;&gt;&lt;/span&gt;&lt;/div&gt;&lt;div&gt;&lt;br&gt;&lt;/div&gt;&lt;div&gt;-&amp;nbsp;&lt;span style=&quot;background-color: transparent; color: light-dark(rgb(0, 0, 0), rgb(255, 255, 255));&quot; data-end=&quot;1417&quot; data-start=&quot;1398&quot;&gt;User data size:&lt;/span&gt;&lt;span style=&quot;background-color: transparent; color: light-dark(rgb(0, 0, 0), rgb(255, 255, 255));&quot;&gt; 1 KB per user&lt;/span&gt;&lt;/div&gt;&lt;div&gt;&lt;span style=&quot;background-color: transparent; color: light-dark(rgb(0, 0, 0), rgb(255, 255, 255));&quot;&gt;-&amp;nbsp;&lt;/span&gt;&lt;span style=&quot;background-color: transparent; color: light-dark(rgb(0, 0, 0), rgb(255, 255, 255));&quot; data-end=&quot;1480&quot; data-start=&quot;1436&quot;&gt;Video metadata size (includes comments):&lt;/span&gt;&lt;span style=&quot;background-color: transparent; color: light-dark(rgb(0, 0, 0), rgb(255, 255, 255));&quot;&gt; 1 MB per video&lt;/span&gt;&lt;/div&gt;&lt;div&gt;&lt;span style=&quot;background-color: transparent; color: light-dark(rgb(0, 0, 0), rgb(255, 255, 255));&quot;&gt;- T&lt;/span&gt;&lt;span style=&quot;background-color: transparent; color: light-dark(rgb(0, 0, 0), rgb(255, 255, 255));&quot;&gt;otal data storage estimation:&amp;nbsp;&lt;/span&gt;&lt;span style=&quot;background-color: transparent; color: light-dark(rgb(0, 0, 0), rgb(255, 255, 255));&quot; class=&quot;mord&quot;&gt;215&lt;/span&gt;&lt;span style=&quot;background-color: transparent; color: light-dark(rgb(0, 0, 0), rgb(255, 255, 255));&quot; class=&quot;mord text&quot;&gt;&amp;nbsp;GB&lt;/span&gt;&lt;/div&gt;&lt;div&gt;&lt;span style=&quot;background-color: transparent; color: light-dark(rgb(0, 0, 0), rgb(255, 255, 255));&quot; class=&quot;mord text&quot;&gt;-&amp;nbsp;&lt;/span&gt;&lt;span style=&quot;background-color: transparent; color: light-dark(rgb(0, 0, 0), rgb(255, 255, 255));&quot;&gt;Caching assumptions:&amp;nbsp;&lt;/span&gt;&lt;span style=&quot;background-color: transparent; color: light-dark(rgb(0, 0, 0), rgb(255, 255, 255));&quot;&gt;5% of data is cached (10 GB)&lt;/span&gt;&lt;/div&gt;&lt;div&gt;&lt;span style=&quot;background-color: transparent; color: light-dark(rgb(0, 0, 0), rgb(255, 255, 255));&quot;&gt;&lt;br&gt;&lt;/span&gt;&lt;/div&gt;&lt;div&gt;&lt;b&gt;Frontend Data Transfer&lt;/b&gt;&lt;span style=&quot;background-color: transparent; color: light-dark(rgb(0, 0, 0), rgb(255, 255, 255));&quot;&gt;&lt;/span&gt;&lt;/div&gt;&lt;div&gt;&lt;br&gt;&lt;/div&gt;&lt;div&gt;-&amp;nbsp;&lt;span style=&quot;background-color: transparent; color: light-dark(rgb(0, 0, 0), rgb(255, 255, 255));&quot; data-end=&quot;1814&quot; data-start=&quot;1798&quot;&gt;Bundle size:&lt;/span&gt;&lt;span style=&quot;background-color: transparent; color: light-dark(rgb(0, 0, 0), rgb(255, 255, 255));&quot;&gt; 2 MB per user (assumption)&lt;/span&gt;&lt;/div&gt;&lt;div&gt;&lt;span style=&quot;background-color: transparent; color: light-dark(rgb(0, 0, 0), rgb(255, 255, 255));&quot;&gt;-&amp;nbsp;&lt;/span&gt;&lt;span style=&quot;background-color: transparent; color: light-dark(rgb(0, 0, 0), rgb(255, 255, 255));&quot;&gt;Peak daily frontend transfer: 400 TB&lt;/span&gt;&lt;/div&gt;&lt;div&gt;&lt;span style=&quot;background-color: transparent; color: light-dark(rgb(0, 0, 0), rgb(255, 255, 255));&quot;&gt;&lt;br&gt;&lt;/span&gt;&lt;/div&gt;&lt;div&gt;&lt;b&gt;Backend API Load and Data Transfer&lt;/b&gt;&lt;span style=&quot;background-color: transparent; color: light-dark(rgb(0, 0, 0), rgb(255, 255, 255));&quot;&gt;&lt;/span&gt;&lt;/div&gt;&lt;div&gt;&lt;br&gt;&lt;/div&gt;&lt;div&gt;-&amp;nbsp;&lt;span style=&quot;background-color: transparent; color: light-dark(rgb(0, 0, 0), rgb(255, 255, 255));&quot; data-end=&quot;2046&quot; data-start=&quot;2016&quot;&gt;Average API response size:&lt;/span&gt;&lt;span style=&quot;background-color: transparent; color: light-dark(rgb(0, 0, 0), rgb(255, 255, 255));&quot;&gt; 10 KB&lt;/span&gt;&lt;/div&gt;&lt;div&gt;&lt;span style=&quot;background-color: transparent; color: light-dark(rgb(0, 0, 0), rgb(255, 255, 255));&quot;&gt;-&amp;nbsp;&lt;/span&gt;&lt;span style=&quot;background-color: transparent; color: light-dark(rgb(0, 0, 0), rgb(255, 255, 255));&quot; data-end=&quot;2082&quot; data-start=&quot;2057&quot;&gt;Response time target:&lt;/span&gt;&lt;span style=&quot;background-color: transparent; color: light-dark(rgb(0, 0, 0), rgb(255, 255, 255));&quot;&gt; Max 2 seconds&lt;/span&gt;&lt;/div&gt;&lt;div&gt;&lt;span style=&quot;background-color: transparent; color: light-dark(rgb(0, 0, 0), rgb(255, 255, 255));&quot;&gt;-&amp;nbsp;&lt;/span&gt;&lt;span style=&quot;background-color: transparent; color: light-dark(rgb(0, 0, 0), rgb(255, 255, 255));&quot;&gt;Peak data transfer:&amp;nbsp;&lt;/span&gt;&lt;span style=&quot;background-color: transparent; color: light-dark(rgb(0, 0, 0), rgb(255, 255, 255));&quot;&gt;1 GB/s (3.5 TB/h)&lt;/span&gt;&lt;/div&gt;&lt;div&gt;&lt;span style=&quot;background-color: transparent; color: light-dark(rgb(0, 0, 0), rgb(255, 255, 255));&quot;&gt;-&amp;nbsp;&lt;/span&gt;&lt;span style=&quot;background-color: transparent; color: light-dark(rgb(0, 0, 0), rgb(255, 255, 255));&quot;&gt;Average per hour: 875 GB&lt;/span&gt;&lt;/div&gt;&lt;div&gt;&lt;span style=&quot;background-color: transparent; color: light-dark(rgb(0, 0, 0), rgb(255, 255, 255));&quot;&gt;-&amp;nbsp;&lt;/span&gt;&lt;span style=&quot;background-color: transparent; color: light-dark(rgb(0, 0, 0), rgb(255, 255, 255));&quot;&gt;Logs generated: 20 GB (14 days - 280 GB)&lt;/span&gt;&lt;/div&gt;&lt;div&gt;&lt;span style=&quot;background-color: transparent; color: light-dark(rgb(0, 0, 0), rgb(255, 255, 255));&quot;&gt;&lt;br&gt;&lt;/span&gt;&lt;/div&gt;&lt;div&gt;&lt;b&gt;Content Delivery&lt;/b&gt;&lt;span style=&quot;background-color: transparent; color: light-dark(rgb(0, 0, 0), rgb(255, 255, 255));&quot;&gt;&lt;/span&gt;&lt;/div&gt;&lt;div&gt;&lt;br&gt;&lt;/div&gt;&lt;div&gt;-&amp;nbsp;&lt;span style=&quot;background-color: transparent; color: light-dark(rgb(0, 0, 0), rgb(255, 255, 255));&quot; data-end=&quot;2360&quot; data-start=&quot;2322&quot;&gt;Total data transfer (all content):&lt;/span&gt;&lt;span style=&quot;background-color: transparent; color: light-dark(rgb(0, 0, 0), rgb(255, 255, 255));&quot;&gt; 20 PB per day&lt;/span&gt;&lt;/div&gt;&lt;div&gt;&lt;span style=&quot;background-color: light-dark(#ffffff, var(--ge-dark-color, #121212)); color: light-dark(rgb(0, 0, 0), rgb(255, 255, 255));&quot;&gt;-&amp;nbsp;&lt;/span&gt;&lt;span style=&quot;background-color: transparent; color: light-dark(rgb(0, 0, 0), rgb(255, 255, 255));&quot;&gt;Logs generated: 20 GB/d&amp;nbsp;&lt;/span&gt;&lt;span style=&quot;background-color: light-dark(#ffffff, var(--ge-dark-color, #121212)); color: light-dark(rgb(0, 0, 0), rgb(255, 255, 255));&quot;&gt;(or 280GB per 14 days)&lt;/span&gt;&lt;/div&gt;&lt;font style=&quot;color: rgb(0, 0, 0); background-color: light-dark(#ffffff, var(--ge-dark-color, #121212));&quot;&gt;&lt;div style=&quot;&quot;&gt;&lt;br&gt;&lt;/div&gt;&lt;div style=&quot;&quot;&gt;&lt;b&gt;Content:&lt;/b&gt;&lt;/div&gt;&lt;div style=&quot;&quot;&gt;&lt;br&gt;- Data Transfer = 20 PB per day&lt;/div&gt;&lt;/font&gt;" style="text;whiteSpace=wrap;html=1;align=left;" vertex="1" parent="1">
          <mxGeometry x="877.12" y="1319" width="325" height="740" as="geometry" />
        </mxCell>
        <mxCell id="ANkwzQRA43zdDnE30-9h-259" value="" style="sketch=0;points=[[0,0,0],[0.25,0,0],[0.5,0,0],[0.75,0,0],[1,0,0],[0,1,0],[0.25,1,0],[0.5,1,0],[0.75,1,0],[1,1,0],[0,0.25,0],[0,0.5,0],[0,0.75,0],[1,0.25,0],[1,0.5,0],[1,0.75,0]];outlineConnect=0;fontColor=#232F3E;fillColor=#ED7100;strokeColor=#ffffff;dashed=0;verticalLabelPosition=bottom;verticalAlign=top;align=center;html=1;fontSize=12;fontStyle=0;aspect=fixed;shape=mxgraph.aws4.resourceIcon;resIcon=mxgraph.aws4.lambda;" vertex="1" parent="1">
          <mxGeometry x="1704.5" y="1617.5800000000002" width="50" height="50" as="geometry" />
        </mxCell>
        <mxCell id="ANkwzQRA43zdDnE30-9h-260" value="&lt;font style=&quot;font-size: 10px; color: rgb(153, 153, 153);&quot;&gt;Admin API&lt;/font&gt;" style="text;html=1;align=center;verticalAlign=middle;whiteSpace=wrap;rounded=0;" vertex="1" parent="1">
          <mxGeometry x="1697.5" y="1667.5800000000002" width="64" height="15" as="geometry" />
        </mxCell>
        <mxCell id="ANkwzQRA43zdDnE30-9h-261" value="" style="sketch=0;points=[[0,0,0],[0.25,0,0],[0.5,0,0],[0.75,0,0],[1,0,0],[0,1,0],[0.25,1,0],[0.5,1,0],[0.75,1,0],[1,1,0],[0,0.25,0],[0,0.5,0],[0,0.75,0],[1,0.25,0],[1,0.5,0],[1,0.75,0]];outlineConnect=0;fontColor=#232F3E;fillColor=#ED7100;strokeColor=#ffffff;dashed=0;verticalLabelPosition=bottom;verticalAlign=top;align=center;html=1;fontSize=12;fontStyle=0;aspect=fixed;shape=mxgraph.aws4.resourceIcon;resIcon=mxgraph.aws4.elastic_load_balancing;" vertex="1" parent="1">
          <mxGeometry x="1704.01" y="1524.95" width="50" height="50" as="geometry" />
        </mxCell>
        <mxCell id="ANkwzQRA43zdDnE30-9h-266" value="" style="sketch=0;points=[[0,0,0],[0.25,0,0],[0.5,0,0],[0.75,0,0],[1,0,0],[0,1,0],[0.25,1,0],[0.5,1,0],[0.75,1,0],[1,1,0],[0,0.25,0],[0,0.5,0],[0,0.75,0],[1,0.25,0],[1,0.5,0],[1,0.75,0]];outlineConnect=0;fontColor=#232F3E;fillColor=#C925D1;strokeColor=#ffffff;dashed=0;verticalLabelPosition=bottom;verticalAlign=top;align=center;html=1;fontSize=12;fontStyle=0;aspect=fixed;shape=mxgraph.aws4.resourceIcon;resIcon=mxgraph.aws4.rds;" vertex="1" parent="1">
          <mxGeometry x="1704.01" y="1719.5800000000002" width="50" height="50" as="geometry" />
        </mxCell>
        <mxCell id="ANkwzQRA43zdDnE30-9h-267" value="&lt;font color=&quot;#999999&quot;&gt;&lt;span style=&quot;font-size: 10px;&quot;&gt;RDS Master&lt;/span&gt;&lt;/font&gt;" style="text;html=1;align=center;verticalAlign=middle;whiteSpace=wrap;rounded=0;" vertex="1" parent="1">
          <mxGeometry x="1700.5" y="1769.5800000000002" width="64" height="15" as="geometry" />
        </mxCell>
        <mxCell id="ANkwzQRA43zdDnE30-9h-270" style="edgeStyle=orthogonalEdgeStyle;rounded=0;orthogonalLoop=1;jettySize=auto;html=1;exitX=0.5;exitY=1;exitDx=0;exitDy=0;entryX=0.5;entryY=0;entryDx=0;entryDy=0;entryPerimeter=0;strokeWidth=0.5;strokeColor=#999999;" edge="1" parent="1" source="ANkwzQRA43zdDnE30-9h-260" target="ANkwzQRA43zdDnE30-9h-266">
          <mxGeometry relative="1" as="geometry" />
        </mxCell>
        <mxCell id="ANkwzQRA43zdDnE30-9h-271" value="" style="sketch=0;points=[[0,0,0],[0.25,0,0],[0.5,0,0],[0.75,0,0],[1,0,0],[0,1,0],[0.25,1,0],[0.5,1,0],[0.75,1,0],[1,1,0],[0,0.25,0],[0,0.5,0],[0,0.75,0],[1,0.25,0],[1,0.5,0],[1,0.75,0]];outlineConnect=0;fontColor=#232F3E;fillColor=#7AA116;strokeColor=#ffffff;dashed=0;verticalLabelPosition=bottom;verticalAlign=top;align=center;html=1;fontSize=12;fontStyle=0;aspect=fixed;shape=mxgraph.aws4.resourceIcon;resIcon=mxgraph.aws4.s3;" vertex="1" parent="1">
          <mxGeometry x="1810.2700000000002" y="1525.5800000000002" width="50" height="50" as="geometry" />
        </mxCell>
        <mxCell id="ANkwzQRA43zdDnE30-9h-272" value="&lt;font color=&quot;#999999&quot;&gt;&lt;span style=&quot;font-size: 10px;&quot;&gt;Temp Storage&lt;/span&gt;&lt;/font&gt;" style="text;html=1;align=center;verticalAlign=middle;whiteSpace=wrap;rounded=0;" vertex="1" parent="1">
          <mxGeometry x="1802.01" y="1575.5800000000002" width="66" height="15" as="geometry" />
        </mxCell>
        <mxCell id="ANkwzQRA43zdDnE30-9h-273" value="" style="sketch=0;points=[[0,0,0],[0.25,0,0],[0.5,0,0],[0.75,0,0],[1,0,0],[0,1,0],[0.25,1,0],[0.5,1,0],[0.75,1,0],[1,1,0],[0,0.25,0],[0,0.5,0],[0,0.75,0],[1,0.25,0],[1,0.5,0],[1,0.75,0]];outlineConnect=0;fontColor=#232F3E;fillColor=#8C4FFF;strokeColor=#ffffff;dashed=0;verticalLabelPosition=bottom;verticalAlign=top;align=center;html=1;fontSize=12;fontStyle=0;aspect=fixed;shape=mxgraph.aws4.resourceIcon;resIcon=mxgraph.aws4.cloudfront;" vertex="1" parent="1">
          <mxGeometry x="1925.74" y="1417.5800000000002" width="50" height="50" as="geometry" />
        </mxCell>
        <mxCell id="ANkwzQRA43zdDnE30-9h-274" value="" style="sketch=0;points=[[0,0,0],[0.25,0,0],[0.5,0,0],[0.75,0,0],[1,0,0],[0,1,0],[0.25,1,0],[0.5,1,0],[0.75,1,0],[1,1,0],[0,0.25,0],[0,0.5,0],[0,0.75,0],[1,0.25,0],[1,0.5,0],[1,0.75,0]];outlineConnect=0;fontColor=#232F3E;fillColor=#ED7100;strokeColor=#ffffff;dashed=0;verticalLabelPosition=bottom;verticalAlign=top;align=center;html=1;fontSize=12;fontStyle=0;aspect=fixed;shape=mxgraph.aws4.resourceIcon;resIcon=mxgraph.aws4.lambda;" vertex="1" parent="1">
          <mxGeometry x="1810.5" y="1617.5800000000002" width="50" height="50" as="geometry" />
        </mxCell>
        <mxCell id="ANkwzQRA43zdDnE30-9h-277" value="&lt;font color=&quot;#999999&quot;&gt;&lt;span style=&quot;font-size: 10px;&quot;&gt;Upload Processor&lt;/span&gt;&lt;/font&gt;" style="text;html=1;align=center;verticalAlign=middle;whiteSpace=wrap;rounded=0;" vertex="1" parent="1">
          <mxGeometry x="1797.5" y="1667.5800000000002" width="82" height="15" as="geometry" />
        </mxCell>
        <mxCell id="ANkwzQRA43zdDnE30-9h-279" value="" style="sketch=0;points=[[0,0,0],[0.25,0,0],[0.5,0,0],[0.75,0,0],[1,0,0],[0,1,0],[0.25,1,0],[0.5,1,0],[0.75,1,0],[1,1,0],[0,0.25,0],[0,0.5,0],[0,0.75,0],[1,0.25,0],[1,0.5,0],[1,0.75,0]];outlineConnect=0;fontColor=#232F3E;fillColor=#ED7100;strokeColor=#ffffff;dashed=0;verticalLabelPosition=bottom;verticalAlign=top;align=center;html=1;fontSize=12;fontStyle=0;aspect=fixed;shape=mxgraph.aws4.resourceIcon;resIcon=mxgraph.aws4.elemental_mediaconvert;" vertex="1" parent="1">
          <mxGeometry x="1813.5" y="1719.5800000000002" width="50" height="50" as="geometry" />
        </mxCell>
        <mxCell id="ANkwzQRA43zdDnE30-9h-280" value="&lt;font color=&quot;#999999&quot;&gt;&lt;span style=&quot;font-size: 10px;&quot;&gt;Elemental Media Convert&lt;/span&gt;&lt;/font&gt;" style="text;html=1;align=center;verticalAlign=middle;whiteSpace=wrap;rounded=0;" vertex="1" parent="1">
          <mxGeometry x="1780" y="1769.5800000000002" width="117" height="15" as="geometry" />
        </mxCell>
        <mxCell id="ANkwzQRA43zdDnE30-9h-283" value="" style="sketch=0;points=[[0,0,0],[0.25,0,0],[0.5,0,0],[0.75,0,0],[1,0,0],[0,1,0],[0.25,1,0],[0.5,1,0],[0.75,1,0],[1,1,0],[0,0.25,0],[0,0.5,0],[0,0.75,0],[1,0.25,0],[1,0.5,0],[1,0.75,0]];outlineConnect=0;fontColor=#232F3E;fillColor=#7AA116;strokeColor=#ffffff;dashed=0;verticalLabelPosition=bottom;verticalAlign=top;align=center;html=1;fontSize=12;fontStyle=0;aspect=fixed;shape=mxgraph.aws4.resourceIcon;resIcon=mxgraph.aws4.s3;" vertex="1" parent="1">
          <mxGeometry x="1926.5500000000002" y="1719.5800000000002" width="50" height="50" as="geometry" />
        </mxCell>
        <mxCell id="ANkwzQRA43zdDnE30-9h-284" value="&lt;font color=&quot;#999999&quot;&gt;&lt;span style=&quot;font-size: 10px;&quot;&gt;Video Storage&lt;/span&gt;&lt;/font&gt;" style="text;html=1;align=center;verticalAlign=middle;whiteSpace=wrap;rounded=0;" vertex="1" parent="1">
          <mxGeometry x="1918.55" y="1769.5800000000002" width="66" height="15" as="geometry" />
        </mxCell>
        <mxCell id="ANkwzQRA43zdDnE30-9h-291" value="" style="sketch=0;pointerEvents=1;shadow=0;dashed=0;html=1;strokeColor=none;labelPosition=center;verticalLabelPosition=bottom;verticalAlign=top;align=center;fillColor=#505050;shape=mxgraph.mscae.intune.user_group" vertex="1" parent="1">
          <mxGeometry x="974.6600000000003" y="2523" width="50" height="37" as="geometry" />
        </mxCell>
        <mxCell id="ANkwzQRA43zdDnE30-9h-292" value="&lt;font style=&quot;font-size: 10px; color: rgb(153, 153, 153);&quot;&gt;API Gateway&lt;/font&gt;" style="text;html=1;align=center;verticalAlign=middle;whiteSpace=wrap;rounded=0;" vertex="1" parent="1">
          <mxGeometry x="1674.7499999999998" y="1572.5800000000002" width="109.23" height="15" as="geometry" />
        </mxCell>
        <mxCell id="ANkwzQRA43zdDnE30-9h-293" style="edgeStyle=orthogonalEdgeStyle;rounded=0;orthogonalLoop=1;jettySize=auto;html=1;entryX=0.5;entryY=0;entryDx=0;entryDy=0;entryPerimeter=0;strokeWidth=0.5;strokeColor=#999999;" edge="1" parent="1" target="ANkwzQRA43zdDnE30-9h-259">
          <mxGeometry relative="1" as="geometry">
            <mxPoint x="1728.9456521739135" y="1589.95" as="sourcePoint" />
          </mxGeometry>
        </mxCell>
        <mxCell id="ANkwzQRA43zdDnE30-9h-294" value="" style="endArrow=classic;html=1;rounded=0;exitX=0.5;exitY=1;exitDx=0;exitDy=0;strokeWidth=0.5;strokeColor=#999999;" edge="1" parent="1" source="ANkwzQRA43zdDnE30-9h-272" target="ANkwzQRA43zdDnE30-9h-274">
          <mxGeometry width="50" height="50" relative="1" as="geometry">
            <mxPoint x="1961.5" y="1729.5800000000002" as="sourcePoint" />
            <mxPoint x="1959.5" y="1585.5800000000002" as="targetPoint" />
          </mxGeometry>
        </mxCell>
        <mxCell id="ANkwzQRA43zdDnE30-9h-296" value="" style="endArrow=classic;html=1;rounded=0;exitX=0.5;exitY=1;exitDx=0;exitDy=0;entryX=0.5;entryY=0;entryDx=0;entryDy=0;entryPerimeter=0;strokeWidth=0.5;strokeColor=#999999;" edge="1" parent="1" source="ANkwzQRA43zdDnE30-9h-277" target="ANkwzQRA43zdDnE30-9h-279">
          <mxGeometry width="50" height="50" relative="1" as="geometry">
            <mxPoint x="1844.5" y="1600.5800000000002" as="sourcePoint" />
            <mxPoint x="1844.5" y="1627.5800000000002" as="targetPoint" />
          </mxGeometry>
        </mxCell>
        <mxCell id="ANkwzQRA43zdDnE30-9h-297" value="" style="endArrow=classic;html=1;rounded=0;exitX=1;exitY=0.5;exitDx=0;exitDy=0;entryX=0;entryY=0.5;entryDx=0;entryDy=0;entryPerimeter=0;exitPerimeter=0;strokeWidth=0.5;strokeColor=#999999;" edge="1" parent="1" source="ANkwzQRA43zdDnE30-9h-279" target="ANkwzQRA43zdDnE30-9h-283">
          <mxGeometry width="50" height="50" relative="1" as="geometry">
            <mxPoint x="1848.5" y="1692.5800000000002" as="sourcePoint" />
            <mxPoint x="1848.5" y="1729.5800000000002" as="targetPoint" />
          </mxGeometry>
        </mxCell>
        <mxCell id="ANkwzQRA43zdDnE30-9h-298" value="" style="sketch=0;points=[[0,0,0],[0.25,0,0],[0.5,0,0],[0.75,0,0],[1,0,0],[0,1,0],[0.25,1,0],[0.5,1,0],[0.75,1,0],[1,1,0],[0,0.25,0],[0,0.5,0],[0,0.75,0],[1,0.25,0],[1,0.5,0],[1,0.75,0]];outlineConnect=0;fontColor=#232F3E;fillColor=#ED7100;strokeColor=#ffffff;dashed=0;verticalLabelPosition=bottom;verticalAlign=top;align=center;html=1;fontSize=12;fontStyle=0;aspect=fixed;shape=mxgraph.aws4.resourceIcon;resIcon=mxgraph.aws4.lambda;" vertex="1" parent="1">
          <mxGeometry x="1926.24" y="1617.5800000000002" width="50" height="50" as="geometry" />
        </mxCell>
        <mxCell id="ANkwzQRA43zdDnE30-9h-299" value="&lt;font color=&quot;#999999&quot;&gt;&lt;span style=&quot;font-size: 10px;&quot;&gt;CDN Invalidator&lt;/span&gt;&lt;/font&gt;" style="text;html=1;align=center;verticalAlign=middle;whiteSpace=wrap;rounded=0;" vertex="1" parent="1">
          <mxGeometry x="1910.24" y="1667.5800000000002" width="82" height="15" as="geometry" />
        </mxCell>
        <mxCell id="ANkwzQRA43zdDnE30-9h-300" value="" style="endArrow=classic;html=1;rounded=0;exitX=0.5;exitY=0;exitDx=0;exitDy=0;entryX=0.5;entryY=1;entryDx=0;entryDy=0;exitPerimeter=0;strokeWidth=0.5;strokeColor=#999999;" edge="1" parent="1" source="ANkwzQRA43zdDnE30-9h-283" target="ANkwzQRA43zdDnE30-9h-299">
          <mxGeometry width="50" height="50" relative="1" as="geometry">
            <mxPoint x="1873.5" y="1754.5800000000002" as="sourcePoint" />
            <mxPoint x="1936.5" y="1754.5800000000002" as="targetPoint" />
          </mxGeometry>
        </mxCell>
        <mxCell id="ANkwzQRA43zdDnE30-9h-302" value="&lt;font color=&quot;#999999&quot;&gt;&lt;span style=&quot;font-size: 10px;&quot;&gt;content.cmovie.com&lt;/span&gt;&lt;/font&gt;" style="text;html=1;align=center;verticalAlign=middle;whiteSpace=wrap;rounded=0;" vertex="1" parent="1">
          <mxGeometry x="1918.05" y="1463.5800000000002" width="66" height="15" as="geometry" />
        </mxCell>
        <mxCell id="ANkwzQRA43zdDnE30-9h-303" value="" style="endArrow=classic;html=1;rounded=0;exitX=0.5;exitY=0;exitDx=0;exitDy=0;entryX=0.5;entryY=1;entryDx=0;entryDy=0;exitPerimeter=0;strokeWidth=0.5;strokeColor=#999999;" edge="1" parent="1" source="ANkwzQRA43zdDnE30-9h-298" target="ANkwzQRA43zdDnE30-9h-302">
          <mxGeometry width="50" height="50" relative="1" as="geometry">
            <mxPoint x="1961.5" y="1729.5800000000002" as="sourcePoint" />
            <mxPoint x="1951.5499999999997" y="1487.5800000000002" as="targetPoint" />
          </mxGeometry>
        </mxCell>
        <mxCell id="ANkwzQRA43zdDnE30-9h-315" value="" style="outlineConnect=0;dashed=0;verticalLabelPosition=bottom;verticalAlign=top;align=center;html=1;shape=mxgraph.aws3.application_load_balancer;fillColor=#F58536;gradientColor=none;movable=1;resizable=1;rotatable=1;deletable=1;editable=1;locked=0;connectable=1;" vertex="1" parent="1">
          <mxGeometry x="2676.560000000001" y="1566.71" width="50" height="50" as="geometry" />
        </mxCell>
        <mxCell id="ANkwzQRA43zdDnE30-9h-316" value="" style="sketch=0;points=[[0,0,0],[0.25,0,0],[0.5,0,0],[0.75,0,0],[1,0,0],[0,1,0],[0.25,1,0],[0.5,1,0],[0.75,1,0],[1,1,0],[0,0.25,0],[0,0.5,0],[0,0.75,0],[1,0.25,0],[1,0.5,0],[1,0.75,0]];outlineConnect=0;fontColor=#232F3E;fillColor=#ED7100;strokeColor=#ffffff;dashed=0;verticalLabelPosition=bottom;verticalAlign=top;align=center;html=1;fontSize=12;fontStyle=0;aspect=fixed;shape=mxgraph.aws4.resourceIcon;resIcon=mxgraph.aws4.ecs;movable=1;resizable=1;rotatable=1;deletable=1;editable=1;locked=0;connectable=1;" vertex="1" parent="1">
          <mxGeometry x="2676.1800000000007" y="1667.21" width="50" height="50" as="geometry" />
        </mxCell>
        <mxCell id="ANkwzQRA43zdDnE30-9h-317" value="" style="rounded=0;whiteSpace=wrap;html=1;dashed=1;strokeColor=none;movable=1;resizable=1;rotatable=1;deletable=1;editable=1;locked=0;connectable=1;" vertex="1" parent="1">
          <mxGeometry x="2711.690000000001" y="1667.21" width="14.49" height="14.49" as="geometry" />
        </mxCell>
        <mxCell id="ANkwzQRA43zdDnE30-9h-318" value="" style="sketch=0;outlineConnect=0;fontColor=#232F3E;gradientColor=none;fillColor=#ED7100;strokeColor=none;dashed=0;verticalLabelPosition=bottom;verticalAlign=top;align=center;html=1;fontSize=12;fontStyle=0;aspect=fixed;pointerEvents=1;shape=mxgraph.aws4.auto_scaling2;movable=1;resizable=1;rotatable=1;deletable=1;editable=1;locked=0;connectable=1;" vertex="1" parent="1">
          <mxGeometry x="2711.690000000001" y="1667.21" width="14" height="14" as="geometry" />
        </mxCell>
        <mxCell id="ANkwzQRA43zdDnE30-9h-321" value="&lt;font color=&quot;#999999&quot;&gt;&lt;span style=&quot;font-size: 10px;&quot;&gt;ALB&lt;/span&gt;&lt;/font&gt;" style="text;html=1;align=center;verticalAlign=middle;whiteSpace=wrap;rounded=0;movable=1;resizable=1;rotatable=1;deletable=1;editable=1;locked=0;connectable=1;" vertex="1" parent="1">
          <mxGeometry x="2677.310000000001" y="1612.71" width="49.25" height="16" as="geometry" />
        </mxCell>
        <mxCell id="ANkwzQRA43zdDnE30-9h-322" value="" style="endArrow=classic;html=1;rounded=0;exitX=0.5;exitY=1;exitDx=0;exitDy=0;entryX=0.5;entryY=0;entryDx=0;entryDy=0;entryPerimeter=0;movable=1;resizable=1;rotatable=1;deletable=1;editable=1;locked=0;connectable=1;" edge="1" parent="1" source="ANkwzQRA43zdDnE30-9h-321" target="ANkwzQRA43zdDnE30-9h-316">
          <mxGeometry width="50" height="50" relative="1" as="geometry">
            <mxPoint x="2453.440000000001" y="1617.21" as="sourcePoint" />
            <mxPoint x="2453.440000000001" y="1590.21" as="targetPoint" />
          </mxGeometry>
        </mxCell>
        <mxCell id="ANkwzQRA43zdDnE30-9h-323" value="" style="sketch=0;points=[[0,0,0],[0.25,0,0],[0.5,0,0],[0.75,0,0],[1,0,0],[0,1,0],[0.25,1,0],[0.5,1,0],[0.75,1,0],[1,1,0],[0,0.25,0],[0,0.5,0],[0,0.75,0],[1,0.25,0],[1,0.5,0],[1,0.75,0]];outlineConnect=0;fontColor=#232F3E;fillColor=#C925D1;strokeColor=#ffffff;dashed=0;verticalLabelPosition=bottom;verticalAlign=top;align=center;html=1;fontSize=12;fontStyle=0;aspect=fixed;shape=mxgraph.aws4.resourceIcon;resIcon=mxgraph.aws4.rds;movable=1;resizable=1;rotatable=1;deletable=1;editable=1;locked=0;connectable=1;" vertex="1" parent="1">
          <mxGeometry x="2675.690000000001" y="1754.71" width="50" height="50" as="geometry" />
        </mxCell>
        <mxCell id="ANkwzQRA43zdDnE30-9h-324" value="" style="endArrow=classic;html=1;rounded=0;exitX=0.5;exitY=1;exitDx=0;exitDy=0;entryX=0.5;entryY=0;entryDx=0;entryDy=0;entryPerimeter=0;exitPerimeter=0;movable=1;resizable=1;rotatable=1;deletable=1;editable=1;locked=0;connectable=1;" edge="1" parent="1" source="ANkwzQRA43zdDnE30-9h-316" target="ANkwzQRA43zdDnE30-9h-323">
          <mxGeometry width="50" height="50" relative="1" as="geometry">
            <mxPoint x="2711.440000000001" y="1657.21" as="sourcePoint" />
            <mxPoint x="2711.440000000001" y="1677.21" as="targetPoint" />
          </mxGeometry>
        </mxCell>
        <mxCell id="ANkwzQRA43zdDnE30-9h-325" value="&lt;font color=&quot;#999999&quot;&gt;&lt;span style=&quot;font-size: 10px;&quot;&gt;RDS Replica&lt;/span&gt;&lt;/font&gt;" style="text;html=1;align=center;verticalAlign=middle;whiteSpace=wrap;rounded=0;movable=1;resizable=1;rotatable=1;deletable=1;editable=1;locked=0;connectable=1;" vertex="1" parent="1">
          <mxGeometry x="2671.3000000000006" y="1803.21" width="60.51" height="16" as="geometry" />
        </mxCell>
        <mxCell id="ANkwzQRA43zdDnE30-9h-337" value="" style="sketch=0;points=[[0,0,0],[0.25,0,0],[0.5,0,0],[0.75,0,0],[1,0,0],[0,1,0],[0.25,1,0],[0.5,1,0],[0.75,1,0],[1,1,0],[0,0.25,0],[0,0.5,0],[0,0.75,0],[1,0.25,0],[1,0.5,0],[1,0.75,0]];outlineConnect=0;fontColor=#232F3E;fillColor=#C925D1;strokeColor=#ffffff;dashed=0;verticalLabelPosition=bottom;verticalAlign=top;align=center;html=1;fontSize=12;fontStyle=0;aspect=fixed;shape=mxgraph.aws4.resourceIcon;resIcon=mxgraph.aws4.rds;movable=1;resizable=1;rotatable=1;deletable=1;editable=1;locked=0;connectable=1;" vertex="1" parent="1">
          <mxGeometry x="2556.6300000000006" y="1754.7100000000003" width="50" height="50" as="geometry" />
        </mxCell>
        <mxCell id="ANkwzQRA43zdDnE30-9h-338" value="&lt;font color=&quot;#999999&quot;&gt;&lt;span style=&quot;font-size: 10px;&quot;&gt;RDS Master&lt;/span&gt;&lt;/font&gt;" style="text;html=1;align=center;verticalAlign=middle;whiteSpace=wrap;rounded=0;movable=1;resizable=1;rotatable=1;deletable=1;editable=1;locked=0;connectable=1;" vertex="1" parent="1">
          <mxGeometry x="2552.2400000000002" y="1803.2100000000003" width="60.51" height="16" as="geometry" />
        </mxCell>
        <mxCell id="ANkwzQRA43zdDnE30-9h-342" value="" style="endArrow=classic;html=1;rounded=0;exitX=0;exitY=0.5;exitDx=0;exitDy=0;entryX=1;entryY=0.5;entryDx=0;entryDy=0;entryPerimeter=0;exitPerimeter=0;" edge="1" parent="1" source="ANkwzQRA43zdDnE30-9h-316" target="ANkwzQRA43zdDnE30-9h-337">
          <mxGeometry width="50" height="50" relative="1" as="geometry">
            <mxPoint x="2654.0000000000005" y="1702.7" as="sourcePoint" />
            <mxPoint x="2500.0000000000005" y="1702.7" as="targetPoint" />
          </mxGeometry>
        </mxCell>
        <mxCell id="ANkwzQRA43zdDnE30-9h-343" value="" style="endArrow=classic;html=1;rounded=0;exitX=1;exitY=0.5;exitDx=0;exitDy=0;entryX=0;entryY=0.5;entryDx=0;entryDy=0;entryPerimeter=0;exitPerimeter=0;" edge="1" parent="1" source="ANkwzQRA43zdDnE30-9h-337" target="ANkwzQRA43zdDnE30-9h-323">
          <mxGeometry width="50" height="50" relative="1" as="geometry">
            <mxPoint x="2654.0000000000005" y="1702.7" as="sourcePoint" />
            <mxPoint x="2499.0000000000005" y="1789.7" as="targetPoint" />
          </mxGeometry>
        </mxCell>
        <mxCell id="ANkwzQRA43zdDnE30-9h-365" value="" style="endArrow=classic;html=1;rounded=0;exitX=0.5;exitY=1;exitDx=0;exitDy=0;entryX=0.5;entryY=0;entryDx=0;entryDy=0;entryPerimeter=0;" edge="1" parent="1" source="ANkwzQRA43zdDnE30-9h-372" target="ANkwzQRA43zdDnE30-9h-315">
          <mxGeometry width="50" height="50" relative="1" as="geometry">
            <mxPoint x="2683.0000000000005" y="1489.5800000000002" as="sourcePoint" />
            <mxPoint x="2698.2116219950262" y="1523.97" as="targetPoint" />
          </mxGeometry>
        </mxCell>
        <mxCell id="ANkwzQRA43zdDnE30-9h-369" value="" style="sketch=0;points=[[0,0,0],[0.25,0,0],[0.5,0,0],[0.75,0,0],[1,0,0],[0,1,0],[0.25,1,0],[0.5,1,0],[0.75,1,0],[1,1,0],[0,0.25,0],[0,0.5,0],[0,0.75,0],[1,0.25,0],[1,0.5,0],[1,0.75,0]];outlineConnect=0;fontColor=#232F3E;fillColor=#8C4FFF;strokeColor=#ffffff;dashed=0;verticalLabelPosition=bottom;verticalAlign=top;align=center;html=1;fontSize=12;fontStyle=0;aspect=fixed;shape=mxgraph.aws4.resourceIcon;resIcon=mxgraph.aws4.route_53;" vertex="1" parent="1">
          <mxGeometry x="2677.3100000000004" y="1441.5800000000002" width="50" height="50" as="geometry" />
        </mxCell>
        <mxCell id="ANkwzQRA43zdDnE30-9h-372" value="&lt;font color=&quot;#999999&quot;&gt;&lt;span style=&quot;font-size: 10px;&quot;&gt;api.cmovie.com&lt;/span&gt;&lt;/font&gt;" style="text;html=1;align=center;verticalAlign=middle;whiteSpace=wrap;rounded=0;movable=1;resizable=1;rotatable=1;deletable=1;editable=1;locked=0;connectable=1;" vertex="1" parent="1">
          <mxGeometry x="2677.32" y="1487.5800000000002" width="49.25" height="16" as="geometry" />
        </mxCell>
        <mxCell id="ANkwzQRA43zdDnE30-9h-375" value="&lt;font style=&quot;color: rgb(255, 255, 255);&quot;&gt;&lt;b&gt;1&lt;/b&gt;&lt;/font&gt;" style="ellipse;whiteSpace=wrap;html=1;aspect=fixed;strokeColor=none;fillColor=#2B87FF;" vertex="1" parent="1">
          <mxGeometry x="2440.62" y="1181" width="28" height="28" as="geometry" />
        </mxCell>
        <mxCell id="ANkwzQRA43zdDnE30-9h-376" value="&lt;font style=&quot;font-size: 10px;&quot;&gt;AWS Cloud&lt;/font&gt;" style="sketch=0;outlineConnect=0;gradientColor=none;html=1;whiteSpace=wrap;fontSize=12;fontStyle=0;shape=mxgraph.aws4.group;grIcon=mxgraph.aws4.group_aws_cloud;strokeColor=#AAB7B8;fillColor=none;verticalAlign=top;align=left;spacingLeft=30;fontColor=#AAB7B8;dashed=0;movable=1;resizable=1;rotatable=1;deletable=1;editable=1;locked=0;connectable=1;" vertex="1" parent="1">
          <mxGeometry x="908.2899999999995" y="2602.63" width="182.76" height="320.5" as="geometry" />
        </mxCell>
        <mxCell id="ANkwzQRA43zdDnE30-9h-378" value="&lt;font style=&quot;font-size: 10px;&quot;&gt;us-east-1&lt;/font&gt;" style="sketch=0;outlineConnect=0;gradientColor=none;html=1;whiteSpace=wrap;fontSize=12;fontStyle=0;shape=mxgraph.aws4.group;grIcon=mxgraph.aws4.group_region;strokeColor=#B6BABF;fillColor=none;verticalAlign=top;align=left;spacingLeft=30;fontColor=#B6BABF;dashed=1;movable=1;resizable=1;rotatable=1;deletable=1;editable=1;locked=0;connectable=1;" vertex="1" parent="1">
          <mxGeometry x="914.0399999999995" y="2806.13" width="94" height="109" as="geometry" />
        </mxCell>
        <mxCell id="ANkwzQRA43zdDnE30-9h-379" value="" style="sketch=0;points=[[0,0,0],[0.25,0,0],[0.5,0,0],[0.75,0,0],[1,0,0],[0,1,0],[0.25,1,0],[0.5,1,0],[0.75,1,0],[1,1,0],[0,0.25,0],[0,0.5,0],[0,0.75,0],[1,0.25,0],[1,0.5,0],[1,0.75,0]];outlineConnect=0;fontColor=#232F3E;fillColor=#8C4FFF;strokeColor=#ffffff;dashed=0;verticalLabelPosition=bottom;verticalAlign=top;align=center;html=1;fontSize=12;fontStyle=0;aspect=fixed;shape=mxgraph.aws4.resourceIcon;resIcon=mxgraph.aws4.cloudfront;" vertex="1" parent="1">
          <mxGeometry x="938.4999999999995" y="2719.13" width="50" height="50" as="geometry" />
        </mxCell>
        <mxCell id="ANkwzQRA43zdDnE30-9h-389" value="" style="sketch=0;points=[[0,0,0],[0.25,0,0],[0.5,0,0],[0.75,0,0],[1,0,0],[0,1,0],[0.25,1,0],[0.5,1,0],[0.75,1,0],[1,1,0],[0,0.25,0],[0,0.5,0],[0,0.75,0],[1,0.25,0],[1,0.5,0],[1,0.75,0]];outlineConnect=0;fontColor=#232F3E;fillColor=#7AA116;strokeColor=#ffffff;dashed=0;verticalLabelPosition=bottom;verticalAlign=top;align=center;html=1;fontSize=12;fontStyle=0;aspect=fixed;shape=mxgraph.aws4.resourceIcon;resIcon=mxgraph.aws4.s3;movable=1;resizable=1;rotatable=1;deletable=1;editable=1;locked=0;connectable=1;" vertex="1" parent="1">
          <mxGeometry x="934.6799999999998" y="2844.13" width="50" height="50" as="geometry" />
        </mxCell>
        <mxCell id="ANkwzQRA43zdDnE30-9h-390" value="&lt;font color=&quot;#999999&quot;&gt;&lt;span style=&quot;font-size: 10px;&quot;&gt;Static Storage&lt;/span&gt;&lt;/font&gt;" style="text;html=1;align=center;verticalAlign=middle;whiteSpace=wrap;rounded=0;movable=1;resizable=1;rotatable=1;deletable=1;editable=1;locked=0;connectable=1;" vertex="1" parent="1">
          <mxGeometry x="926.559999999999" y="2891.13" width="66.24" height="15.5" as="geometry" />
        </mxCell>
        <mxCell id="ANkwzQRA43zdDnE30-9h-406" value="" style="endArrow=classic;html=1;rounded=0;exitX=0.589;exitY=1;exitDx=0;exitDy=0;exitPerimeter=0;strokeWidth=0.5;strokeColor=#999999;" edge="1" parent="1">
          <mxGeometry width="50" height="50" relative="1" as="geometry">
            <mxPoint x="964.7982499999994" y="2782.1299999999997" as="sourcePoint" />
            <mxPoint x="965.0399999999995" y="2805.13" as="targetPoint" />
          </mxGeometry>
        </mxCell>
        <mxCell id="ANkwzQRA43zdDnE30-9h-408" value="" style="sketch=0;points=[[0,0,0],[0.25,0,0],[0.5,0,0],[0.75,0,0],[1,0,0],[0,1,0],[0.25,1,0],[0.5,1,0],[0.75,1,0],[1,1,0],[0,0.25,0],[0,0.5,0],[0,0.75,0],[1,0.25,0],[1,0.5,0],[1,0.75,0]];outlineConnect=0;fontColor=#232F3E;fillColor=#8C4FFF;strokeColor=#ffffff;dashed=0;verticalLabelPosition=bottom;verticalAlign=top;align=center;html=1;fontSize=12;fontStyle=0;aspect=fixed;shape=mxgraph.aws4.resourceIcon;resIcon=mxgraph.aws4.route_53;" vertex="1" parent="1">
          <mxGeometry x="937.6599999999994" y="2642.13" width="50" height="50" as="geometry" />
        </mxCell>
        <mxCell id="ANkwzQRA43zdDnE30-9h-409" value="" style="endArrow=classic;html=1;rounded=0;exitX=0.5;exitY=1;exitDx=0;exitDy=0;exitPerimeter=0;entryX=0.5;entryY=0;entryDx=0;entryDy=0;entryPerimeter=0;strokeWidth=0.5;strokeColor=#999999;" edge="1" parent="1" target="ANkwzQRA43zdDnE30-9h-379">
          <mxGeometry width="50" height="50" relative="1" as="geometry">
            <mxPoint x="963.2499999999995" y="2692.13" as="sourcePoint" />
            <mxPoint x="1111.2499999999993" y="2783.25" as="targetPoint" />
          </mxGeometry>
        </mxCell>
        <mxCell id="ANkwzQRA43zdDnE30-9h-410" value="&lt;font color=&quot;#999999&quot;&gt;&lt;span style=&quot;font-size: 10px;&quot;&gt;admin.cmovie.com&lt;/span&gt;&lt;/font&gt;" style="text;html=1;align=center;verticalAlign=middle;whiteSpace=wrap;rounded=0;movable=1;resizable=1;rotatable=1;deletable=1;editable=1;locked=0;connectable=1;" vertex="1" parent="1">
          <mxGeometry x="934.7899999999995" y="2766.13" width="49.25" height="16" as="geometry" />
        </mxCell>
        <mxCell id="ANkwzQRA43zdDnE30-9h-418" value="&lt;font style=&quot;font-size: 10px;&quot;&gt;AWS Cloud&lt;/font&gt;" style="sketch=0;outlineConnect=0;gradientColor=none;html=1;whiteSpace=wrap;fontSize=12;fontStyle=0;shape=mxgraph.aws4.group;grIcon=mxgraph.aws4.group_aws_cloud;strokeColor=#AAB7B8;fillColor=none;verticalAlign=top;align=left;spacingLeft=30;fontColor=#AAB7B8;dashed=0;movable=1;resizable=1;rotatable=1;deletable=1;editable=1;locked=0;connectable=1;" vertex="1" parent="1">
          <mxGeometry x="1762.4900000000002" y="2615.5" width="176.37" height="314" as="geometry" />
        </mxCell>
        <mxCell id="ANkwzQRA43zdDnE30-9h-419" value="&lt;font style=&quot;font-size: 10px;&quot;&gt;us-east-1&lt;/font&gt;" style="sketch=0;outlineConnect=0;gradientColor=none;html=1;whiteSpace=wrap;fontSize=12;fontStyle=0;shape=mxgraph.aws4.group;grIcon=mxgraph.aws4.group_region;strokeColor=#B6BABF;fillColor=none;verticalAlign=top;align=left;spacingLeft=30;fontColor=#B6BABF;dashed=1;movable=1;resizable=1;rotatable=1;deletable=1;editable=1;locked=0;connectable=1;" vertex="1" parent="1">
          <mxGeometry x="1768.2399999999998" y="2812.5" width="94" height="109" as="geometry" />
        </mxCell>
        <mxCell id="ANkwzQRA43zdDnE30-9h-420" value="" style="sketch=0;points=[[0,0,0],[0.25,0,0],[0.5,0,0],[0.75,0,0],[1,0,0],[0,1,0],[0.25,1,0],[0.5,1,0],[0.75,1,0],[1,1,0],[0,0.25,0],[0,0.5,0],[0,0.75,0],[1,0.25,0],[1,0.5,0],[1,0.75,0]];outlineConnect=0;fontColor=#232F3E;fillColor=#8C4FFF;strokeColor=#ffffff;dashed=0;verticalLabelPosition=bottom;verticalAlign=top;align=center;html=1;fontSize=12;fontStyle=0;aspect=fixed;shape=mxgraph.aws4.resourceIcon;resIcon=mxgraph.aws4.cloudfront;" vertex="1" parent="1">
          <mxGeometry x="1792.6999999999998" y="2725.5" width="50" height="50" as="geometry" />
        </mxCell>
        <mxCell id="ANkwzQRA43zdDnE30-9h-421" value="" style="sketch=0;points=[[0,0,0],[0.25,0,0],[0.5,0,0],[0.75,0,0],[1,0,0],[0,1,0],[0.25,1,0],[0.5,1,0],[0.75,1,0],[1,1,0],[0,0.25,0],[0,0.5,0],[0,0.75,0],[1,0.25,0],[1,0.5,0],[1,0.75,0]];outlineConnect=0;fontColor=#232F3E;fillColor=#7AA116;strokeColor=#ffffff;dashed=0;verticalLabelPosition=bottom;verticalAlign=top;align=center;html=1;fontSize=12;fontStyle=0;aspect=fixed;shape=mxgraph.aws4.resourceIcon;resIcon=mxgraph.aws4.s3;movable=1;resizable=1;rotatable=1;deletable=1;editable=1;locked=0;connectable=1;" vertex="1" parent="1">
          <mxGeometry x="1788.88" y="2850.5" width="50" height="50" as="geometry" />
        </mxCell>
        <mxCell id="ANkwzQRA43zdDnE30-9h-422" value="&lt;font color=&quot;#999999&quot;&gt;&lt;span style=&quot;font-size: 10px;&quot;&gt;Static Storage&lt;/span&gt;&lt;/font&gt;" style="text;html=1;align=center;verticalAlign=middle;whiteSpace=wrap;rounded=0;movable=1;resizable=1;rotatable=1;deletable=1;editable=1;locked=0;connectable=1;" vertex="1" parent="1">
          <mxGeometry x="1780.7600000000002" y="2897.5" width="66.24" height="15.5" as="geometry" />
        </mxCell>
        <mxCell id="ANkwzQRA43zdDnE30-9h-423" value="" style="endArrow=classic;html=1;rounded=0;exitX=0.589;exitY=1;exitDx=0;exitDy=0;exitPerimeter=0;" edge="1" parent="1">
          <mxGeometry width="50" height="50" relative="1" as="geometry">
            <mxPoint x="1818.9982500000006" y="2788.4999999999995" as="sourcePoint" />
            <mxPoint x="1819.2399999999998" y="2811.5" as="targetPoint" />
          </mxGeometry>
        </mxCell>
        <mxCell id="ANkwzQRA43zdDnE30-9h-424" value="" style="sketch=0;points=[[0,0,0],[0.25,0,0],[0.5,0,0],[0.75,0,0],[1,0,0],[0,1,0],[0.25,1,0],[0.5,1,0],[0.75,1,0],[1,1,0],[0,0.25,0],[0,0.5,0],[0,0.75,0],[1,0.25,0],[1,0.5,0],[1,0.75,0]];outlineConnect=0;fontColor=#232F3E;fillColor=#8C4FFF;strokeColor=#ffffff;dashed=0;verticalLabelPosition=bottom;verticalAlign=top;align=center;html=1;fontSize=12;fontStyle=0;aspect=fixed;shape=mxgraph.aws4.resourceIcon;resIcon=mxgraph.aws4.route_53;" vertex="1" parent="1">
          <mxGeometry x="1791.8600000000006" y="2648.5" width="50" height="50" as="geometry" />
        </mxCell>
        <mxCell id="ANkwzQRA43zdDnE30-9h-425" value="" style="endArrow=classic;html=1;rounded=0;exitX=0.5;exitY=1;exitDx=0;exitDy=0;exitPerimeter=0;entryX=0.5;entryY=0;entryDx=0;entryDy=0;entryPerimeter=0;" edge="1" parent="1" target="ANkwzQRA43zdDnE30-9h-420">
          <mxGeometry width="50" height="50" relative="1" as="geometry">
            <mxPoint x="1817.4500000000007" y="2698.5" as="sourcePoint" />
            <mxPoint x="1965.4499999999998" y="2789.62" as="targetPoint" />
          </mxGeometry>
        </mxCell>
        <mxCell id="ANkwzQRA43zdDnE30-9h-426" value="&lt;font color=&quot;#999999&quot;&gt;&lt;span style=&quot;font-size: 10px;&quot;&gt;cmovie.com&lt;/span&gt;&lt;/font&gt;" style="text;html=1;align=center;verticalAlign=middle;whiteSpace=wrap;rounded=0;movable=1;resizable=1;rotatable=1;deletable=1;editable=1;locked=0;connectable=1;" vertex="1" parent="1">
          <mxGeometry x="1788.9899999999998" y="2772.5" width="49.25" height="16" as="geometry" />
        </mxCell>
        <mxCell id="ANkwzQRA43zdDnE30-9h-432" value="&lt;font color=&quot;#999999&quot;&gt;&lt;span style=&quot;font-size: 10px;&quot;&gt;Content Moderators&lt;/span&gt;&lt;/font&gt;" style="text;html=1;align=center;verticalAlign=middle;whiteSpace=wrap;rounded=0;movable=1;resizable=1;rotatable=1;deletable=1;editable=1;locked=0;connectable=1;" vertex="1" parent="1">
          <mxGeometry x="950.7000000000003" y="2557.63" width="97.93" height="16" as="geometry" />
        </mxCell>
        <mxCell id="ANkwzQRA43zdDnE30-9h-433" value="" style="endArrow=classic;html=1;rounded=0;exitX=0.5;exitY=1;exitDx=0;exitDy=0;strokeWidth=0.5;strokeColor=#999999;" edge="1" parent="1" source="ANkwzQRA43zdDnE30-9h-432" target="ANkwzQRA43zdDnE30-9h-376">
          <mxGeometry width="50" height="50" relative="1" as="geometry">
            <mxPoint x="973.2499999999995" y="2702.13" as="sourcePoint" />
            <mxPoint x="973.7999999999997" y="2729.5" as="targetPoint" />
          </mxGeometry>
        </mxCell>
        <mxCell id="ANkwzQRA43zdDnE30-9h-435" value="" style="sketch=0;pointerEvents=1;shadow=0;dashed=0;html=1;strokeColor=none;labelPosition=center;verticalLabelPosition=bottom;verticalAlign=top;align=center;fillColor=#505050;shape=mxgraph.mscae.intune.user_group" vertex="1" parent="1">
          <mxGeometry x="1818.1400000000003" y="2527.49" width="50" height="37" as="geometry" />
        </mxCell>
        <mxCell id="ANkwzQRA43zdDnE30-9h-436" value="&lt;font color=&quot;#999999&quot;&gt;&lt;span style=&quot;font-size: 10px;&quot;&gt;End-Users&lt;/span&gt;&lt;/font&gt;" style="text;html=1;align=center;verticalAlign=middle;whiteSpace=wrap;rounded=0;movable=1;resizable=1;rotatable=1;deletable=1;editable=1;locked=0;connectable=1;" vertex="1" parent="1">
          <mxGeometry x="1801.71" y="2562.37" width="97.93" height="14.62" as="geometry" />
        </mxCell>
        <mxCell id="ANkwzQRA43zdDnE30-9h-437" value="" style="endArrow=classic;html=1;rounded=0;exitX=0.5;exitY=1;exitDx=0;exitDy=0;" edge="1" parent="1" source="ANkwzQRA43zdDnE30-9h-436" target="ANkwzQRA43zdDnE30-9h-418">
          <mxGeometry width="50" height="50" relative="1" as="geometry">
            <mxPoint x="1819.835" y="2539.9999999999995" as="sourcePoint" />
            <mxPoint x="1819.38" y="2577" as="targetPoint" />
          </mxGeometry>
        </mxCell>
        <mxCell id="ANkwzQRA43zdDnE30-9h-438" value="" style="sketch=0;points=[[0,0,0],[0.25,0,0],[0.5,0,0],[0.75,0,0],[1,0,0],[0,1,0],[0.25,1,0],[0.5,1,0],[0.75,1,0],[1,1,0],[0,0.25,0],[0,0.5,0],[0,0.75,0],[1,0.25,0],[1,0.5,0],[1,0.75,0]];outlineConnect=0;fontColor=#232F3E;fillColor=#DD344C;strokeColor=#ffffff;dashed=0;verticalLabelPosition=bottom;verticalAlign=top;align=center;html=1;fontSize=12;fontStyle=0;aspect=fixed;shape=mxgraph.aws4.resourceIcon;resIcon=mxgraph.aws4.cognito;" vertex="1" parent="1">
          <mxGeometry x="1015.9100000000003" y="2642.13" width="50" height="50" as="geometry" />
        </mxCell>
        <mxCell id="ANkwzQRA43zdDnE30-9h-440" value="&lt;font color=&quot;#999999&quot;&gt;&lt;span style=&quot;font-size: 10px;&quot;&gt;Moderators Pool&lt;/span&gt;&lt;/font&gt;" style="text;html=1;align=center;verticalAlign=middle;whiteSpace=wrap;rounded=0;movable=1;resizable=1;rotatable=1;deletable=1;editable=1;locked=0;connectable=1;" vertex="1" parent="1">
          <mxGeometry x="1000.4099999999994" y="2690.63" width="81.01" height="16" as="geometry" />
        </mxCell>
        <mxCell id="ANkwzQRA43zdDnE30-9h-441" value="" style="sketch=0;points=[[0,0,0],[0.25,0,0],[0.5,0,0],[0.75,0,0],[1,0,0],[0,1,0],[0.25,1,0],[0.5,1,0],[0.75,1,0],[1,1,0],[0,0.25,0],[0,0.5,0],[0,0.75,0],[1,0.25,0],[1,0.5,0],[1,0.75,0]];outlineConnect=0;fontColor=#232F3E;fillColor=#DD344C;strokeColor=#ffffff;dashed=0;verticalLabelPosition=bottom;verticalAlign=top;align=center;html=1;fontSize=12;fontStyle=0;aspect=fixed;shape=mxgraph.aws4.resourceIcon;resIcon=mxgraph.aws4.cognito;" vertex="1" parent="1">
          <mxGeometry x="1867.8600000000001" y="2650.74" width="50" height="50" as="geometry" />
        </mxCell>
        <mxCell id="ANkwzQRA43zdDnE30-9h-442" value="&lt;font color=&quot;#999999&quot;&gt;&lt;span style=&quot;font-size: 10px;&quot;&gt;End-Users Pool&lt;/span&gt;&lt;/font&gt;" style="text;html=1;align=center;verticalAlign=middle;whiteSpace=wrap;rounded=0;movable=1;resizable=1;rotatable=1;deletable=1;editable=1;locked=0;connectable=1;" vertex="1" parent="1">
          <mxGeometry x="1852.3599999999997" y="2700.37" width="81.01" height="16" as="geometry" />
        </mxCell>
        <mxCell id="ANkwzQRA43zdDnE30-9h-445" value="" style="sketch=0;points=[[0,0,0],[0.25,0,0],[0.5,0,0],[0.75,0,0],[1,0,0],[0,1,0],[0.25,1,0],[0.5,1,0],[0.75,1,0],[1,1,0],[0,0.25,0],[0,0.5,0],[0,0.75,0],[1,0.25,0],[1,0.5,0],[1,0.75,0]];outlineConnect=0;fontColor=#232F3E;fillColor=#C925D1;strokeColor=#ffffff;dashed=0;verticalLabelPosition=bottom;verticalAlign=top;align=center;html=1;fontSize=12;fontStyle=0;aspect=fixed;shape=mxgraph.aws4.resourceIcon;resIcon=mxgraph.aws4.elasticache;" vertex="1" parent="1">
          <mxGeometry x="2556.6300000000006" y="1667.2100000000003" width="50" height="50" as="geometry" />
        </mxCell>
        <mxCell id="ANkwzQRA43zdDnE30-9h-446" value="&lt;font color=&quot;#999999&quot;&gt;&lt;span style=&quot;font-size: 10px;&quot;&gt;Cache&lt;/span&gt;&lt;/font&gt;" style="text;html=1;align=center;verticalAlign=middle;whiteSpace=wrap;rounded=0;movable=1;resizable=1;rotatable=1;deletable=1;editable=1;locked=0;connectable=1;" vertex="1" parent="1">
          <mxGeometry x="2548.3800000000006" y="1715.8300000000002" width="66.5" height="15.5" as="geometry" />
        </mxCell>
        <mxCell id="ANkwzQRA43zdDnE30-9h-447" value="" style="endArrow=classic;html=1;rounded=0;entryX=1;entryY=0.5;entryDx=0;entryDy=0;entryPerimeter=0;" edge="1" parent="1" target="ANkwzQRA43zdDnE30-9h-445">
          <mxGeometry width="50" height="50" relative="1" as="geometry">
            <mxPoint x="2676.9500000000003" y="1692.5800000000002" as="sourcePoint" />
            <mxPoint x="2617.9500000000003" y="1702.5800000000002" as="targetPoint" />
          </mxGeometry>
        </mxCell>
        <mxCell id="ANkwzQRA43zdDnE30-9h-449" value="" style="sketch=0;points=[[0,0,0],[0.25,0,0],[0.5,0,0],[0.75,0,0],[1,0,0],[0,1,0],[0.25,1,0],[0.5,1,0],[0.75,1,0],[1,1,0],[0,0.25,0],[0,0.5,0],[0,0.75,0],[1,0.25,0],[1,0.5,0],[1,0.75,0]];outlineConnect=0;fontColor=#232F3E;fillColor=#ED7100;strokeColor=#ffffff;dashed=0;verticalLabelPosition=bottom;verticalAlign=top;align=center;html=1;fontSize=12;fontStyle=0;aspect=fixed;shape=mxgraph.aws4.resourceIcon;resIcon=mxgraph.aws4.ecr;" vertex="1" parent="1">
          <mxGeometry x="2778.9" y="1664.7100000000003" width="50" height="50" as="geometry" />
        </mxCell>
        <mxCell id="ANkwzQRA43zdDnE30-9h-450" value="&lt;font color=&quot;#999999&quot;&gt;&lt;span style=&quot;font-size: 10px;&quot;&gt;Container Registry&lt;/span&gt;&lt;/font&gt;" style="text;html=1;align=center;verticalAlign=middle;whiteSpace=wrap;rounded=0;movable=1;resizable=1;rotatable=1;deletable=1;editable=1;locked=0;connectable=1;" vertex="1" parent="1">
          <mxGeometry x="2758.4" y="1711.2100000000003" width="91" height="16" as="geometry" />
        </mxCell>
        <mxCell id="ANkwzQRA43zdDnE30-9h-451" value="" style="sketch=0;points=[[0,0,0],[0.25,0,0],[0.5,0,0],[0.75,0,0],[1,0,0],[0,1,0],[0.25,1,0],[0.5,1,0],[0.75,1,0],[1,1,0],[0,0.25,0],[0,0.5,0],[0,0.75,0],[1,0.25,0],[1,0.5,0],[1,0.75,0]];points=[[0,0,0],[0.25,0,0],[0.5,0,0],[0.75,0,0],[1,0,0],[0,1,0],[0.25,1,0],[0.5,1,0],[0.75,1,0],[1,1,0],[0,0.25,0],[0,0.5,0],[0,0.75,0],[1,0.25,0],[1,0.5,0],[1,0.75,0]];outlineConnect=0;fontColor=#232F3E;fillColor=#E7157B;strokeColor=#ffffff;dashed=0;verticalLabelPosition=bottom;verticalAlign=top;align=center;html=1;fontSize=12;fontStyle=0;aspect=fixed;shape=mxgraph.aws4.resourceIcon;resIcon=mxgraph.aws4.cloudwatch_2;" vertex="1" parent="1">
          <mxGeometry x="2778.9" y="1590.7100000000003" width="50" height="50" as="geometry" />
        </mxCell>
        <mxCell id="ANkwzQRA43zdDnE30-9h-452" value="&lt;font color=&quot;#999999&quot;&gt;&lt;span style=&quot;font-size: 10px;&quot;&gt;CloudWatch&lt;/span&gt;&lt;/font&gt;" style="text;html=1;align=center;verticalAlign=middle;whiteSpace=wrap;rounded=0;movable=1;resizable=1;rotatable=1;deletable=1;editable=1;locked=0;connectable=1;" vertex="1" parent="1">
          <mxGeometry x="2771.3700000000003" y="1638.5800000000002" width="65.07" height="16" as="geometry" />
        </mxCell>
        <mxCell id="ANkwzQRA43zdDnE30-9h-454" value="" style="sketch=0;pointerEvents=1;shadow=0;dashed=0;html=1;strokeColor=none;labelPosition=center;verticalLabelPosition=bottom;verticalAlign=top;align=center;fillColor=#505050;shape=mxgraph.mscae.intune.user_group" vertex="1" parent="1">
          <mxGeometry x="1810.49" y="1327.45" width="50" height="37" as="geometry" />
        </mxCell>
        <mxCell id="ANkwzQRA43zdDnE30-9h-455" value="&lt;font color=&quot;#999999&quot;&gt;&lt;span style=&quot;font-size: 10px;&quot;&gt;Content Moderators&lt;/span&gt;&lt;/font&gt;" style="text;html=1;align=center;verticalAlign=middle;whiteSpace=wrap;rounded=0;movable=1;resizable=1;rotatable=1;deletable=1;editable=1;locked=0;connectable=1;" vertex="1" parent="1">
          <mxGeometry x="1786.53" y="1362.0800000000002" width="97.93" height="16" as="geometry" />
        </mxCell>
        <mxCell id="ANkwzQRA43zdDnE30-9h-458" value="" style="sketch=0;pointerEvents=1;shadow=0;dashed=0;html=1;strokeColor=none;labelPosition=center;verticalLabelPosition=bottom;verticalAlign=top;align=center;fillColor=#505050;shape=mxgraph.mscae.intune.user_group" vertex="1" parent="1">
          <mxGeometry x="1992.9800000000002" y="1327.4499999999998" width="50" height="37" as="geometry" />
        </mxCell>
        <mxCell id="ANkwzQRA43zdDnE30-9h-459" value="&lt;font color=&quot;#999999&quot;&gt;&lt;span style=&quot;font-size: 10px;&quot;&gt;End-Users&lt;/span&gt;&lt;/font&gt;" style="text;html=1;align=center;verticalAlign=middle;whiteSpace=wrap;rounded=0;movable=1;resizable=1;rotatable=1;deletable=1;editable=1;locked=0;connectable=1;" vertex="1" parent="1">
          <mxGeometry x="1976.55" y="1362.33" width="97.93" height="14.62" as="geometry" />
        </mxCell>
        <mxCell id="ANkwzQRA43zdDnE30-9h-460" value="" style="endArrow=classic;html=1;rounded=0;exitX=0.5;exitY=1;exitDx=0;exitDy=0;entryX=0.5;entryY=0;entryDx=0;entryDy=0;entryPerimeter=0;strokeWidth=0.5;strokeColor=#999999;" edge="1" parent="1" source="ANkwzQRA43zdDnE30-9h-455" target="ANkwzQRA43zdDnE30-9h-271">
          <mxGeometry width="50" height="50" relative="1" as="geometry">
            <mxPoint x="1961.51" y="1627.45" as="sourcePoint" />
            <mxPoint x="1961.51" y="1488.45" as="targetPoint" />
          </mxGeometry>
        </mxCell>
        <mxCell id="ANkwzQRA43zdDnE30-9h-461" value="" style="endArrow=classic;html=1;rounded=0;exitX=0.5;exitY=1;exitDx=0;exitDy=0;entryX=0.5;entryY=0;entryDx=0;entryDy=0;entryPerimeter=0;strokeWidth=0.5;strokeColor=#999999;" edge="1" parent="1" source="ANkwzQRA43zdDnE30-9h-459" target="ANkwzQRA43zdDnE30-9h-273">
          <mxGeometry width="50" height="50" relative="1" as="geometry">
            <mxPoint x="1845.51" y="1388.45" as="sourcePoint" />
            <mxPoint x="1845.51" y="1535.45" as="targetPoint" />
          </mxGeometry>
        </mxCell>
        <mxCell id="ANkwzQRA43zdDnE30-9h-462" value="" style="sketch=0;outlineConnect=0;fontColor=#232F3E;gradientColor=none;fillColor=#232F3D;strokeColor=none;dashed=0;verticalLabelPosition=bottom;verticalAlign=top;align=center;html=1;fontSize=12;fontStyle=0;aspect=fixed;pointerEvents=1;shape=mxgraph.aws4.external_sdk;" vertex="1" parent="1">
          <mxGeometry x="2053.23" y="1431.0300000000002" width="50" height="57.35" as="geometry" />
        </mxCell>
        <mxCell id="ANkwzQRA43zdDnE30-9h-463" value="&lt;font color=&quot;#999999&quot;&gt;&lt;span style=&quot;font-size: 10px;&quot;&gt;Cloudflare CDN&lt;/span&gt;&lt;/font&gt;" style="text;html=1;align=center;verticalAlign=middle;whiteSpace=wrap;rounded=0;" vertex="1" parent="1">
          <mxGeometry x="2042.98" y="1485.8700000000001" width="75.25" height="15" as="geometry" />
        </mxCell>
        <mxCell id="ANkwzQRA43zdDnE30-9h-464" value="" style="endArrow=classic;html=1;rounded=0;exitX=0.5;exitY=0;exitDx=0;exitDy=0;exitPerimeter=0;entryX=0.5;entryY=1;entryDx=0;entryDy=0;strokeWidth=0.5;strokeColor=#999999;" edge="1" parent="1" source="ANkwzQRA43zdDnE30-9h-298" target="ANkwzQRA43zdDnE30-9h-463">
          <mxGeometry width="50" height="50" relative="1" as="geometry">
            <mxPoint x="1961.51" y="1627.45" as="sourcePoint" />
            <mxPoint x="2061.51" y="1593.45" as="targetPoint" />
          </mxGeometry>
        </mxCell>
        <mxCell id="ANkwzQRA43zdDnE30-9h-465" value="" style="endArrow=classic;html=1;rounded=0;exitX=0.5;exitY=1;exitDx=0;exitDy=0;entryX=0.689;entryY=0.057;entryDx=0;entryDy=0;entryPerimeter=0;strokeWidth=0.5;strokeColor=#999999;" edge="1" parent="1" source="ANkwzQRA43zdDnE30-9h-459" target="ANkwzQRA43zdDnE30-9h-467">
          <mxGeometry width="50" height="50" relative="1" as="geometry">
            <mxPoint x="2035.51" y="1387.45" as="sourcePoint" />
            <mxPoint x="2076.51" y="1414.45" as="targetPoint" />
          </mxGeometry>
        </mxCell>
        <mxCell id="ANkwzQRA43zdDnE30-9h-467" value="&lt;span style=&quot;color: rgb(170, 183, 184); font-family: Helvetica; font-size: 10px; font-style: normal; font-variant-ligatures: normal; font-variant-caps: normal; font-weight: 400; letter-spacing: normal; orphans: 2; text-align: left; text-indent: 0px; text-transform: none; widows: 2; word-spacing: 0px; -webkit-text-stroke-width: 0px; white-space: normal; background-color: rgb(251, 251, 251); text-decoration-thickness: initial; text-decoration-style: initial; text-decoration-color: initial; display: inline !important; float: none;&quot;&gt;Cloudflare Cloud&lt;/span&gt;" style="text;whiteSpace=wrap;html=1;" vertex="1" parent="1">
          <mxGeometry x="2024.23" y="1400.45" width="79" height="21.95" as="geometry" />
        </mxCell>
        <mxCell id="ANkwzQRA43zdDnE30-9h-469" value="&lt;b&gt;1. Compute Layer (API &amp;amp; Processing)&lt;br&gt;&lt;/b&gt;&lt;br&gt;Lambda Functions for API:&amp;nbsp;&lt;div&gt;- Chosen for their cost efficiency and scalability due to low expected load.&amp;nbsp;&lt;/div&gt;&lt;div&gt;- Accessible only via the AWS Console and API Gateway for controlled exposure.&amp;nbsp;&lt;/div&gt;&lt;div&gt;- Least Privilege Principle – each function has granular IAM permissions.&amp;nbsp;&lt;/div&gt;&lt;div&gt;&lt;br&gt;&lt;/div&gt;&lt;div&gt;Video Processing Flow:&amp;nbsp;&lt;/div&gt;&lt;div&gt;- Video uploads trigger a Lambda that validates the file format.&amp;nbsp;&lt;/div&gt;&lt;div&gt;- On success, it launches a MediaConvert job to generate HLS streams.&amp;nbsp;&lt;/div&gt;&lt;div&gt;- A separate CDN Invalidator Lambda ensures updated content by purging outdated CDN cache.&amp;nbsp;&lt;/div&gt;&lt;div&gt;- Future enhancement: Extend invalidation to external or on-premises CDNs for consistent delivery.&lt;br&gt;&lt;br&gt;&lt;b&gt;2. Storage Layer&lt;/b&gt;&lt;/div&gt;&lt;div&gt;Amazon S3:&lt;/div&gt;&lt;div&gt;- Used for both temporary and permanent video storage.&lt;/div&gt;&lt;div&gt;- Buckets have Block Public Access enabled.&amp;nbsp;&lt;/div&gt;&lt;div&gt;- Temporary storage uses lifecycle policies to delete files after a set duration (e.g., 24 hours).&amp;nbsp;&lt;/div&gt;&lt;div&gt;- CloudFront is configured with the video storage S3 as its origin.&amp;nbsp;&lt;/div&gt;&lt;div&gt;&lt;br&gt;&lt;/div&gt;&lt;div&gt;Relational Database:&lt;/div&gt;&lt;div&gt;- Aurora PostgreSQL selected for reliability, performance, and horizontal scalability.&amp;nbsp;&lt;/div&gt;&lt;div&gt;- Placed in a private subnet with restricted inbound access via Security Group (only port 5432).&amp;nbsp;&lt;/div&gt;&lt;div&gt;- Master region (us-east-1) holds all critical data, including DB backups.&lt;/div&gt;" style="text;whiteSpace=wrap;html=1;align=left;" vertex="1" parent="1">
          <mxGeometry x="1664.25" y="1829" width="383.75" height="439" as="geometry" />
        </mxCell>
        <mxCell id="ANkwzQRA43zdDnE30-9h-470" value="&lt;b&gt;3. Networking &amp;amp; Security&amp;nbsp;&lt;/b&gt;&lt;div&gt;&lt;br&gt;&lt;/div&gt;&lt;div&gt;- TLS everywhere&lt;/div&gt;&lt;div&gt;- All external requests are routed through API Gateway, serving as the only public entry point to Lambda functions.&amp;nbsp;&lt;/div&gt;&lt;div&gt;- Ensures request validation, throttling, and CORS enforcement (if needed).&lt;/div&gt;&lt;div&gt;- Admin API endpoints are protected using JWT-based authentication for secure access.&amp;nbsp;&lt;/div&gt;&lt;div&gt;&lt;span style=&quot;background-color: transparent; color: light-dark(rgb(0, 0, 0), rgb(255, 255, 255));&quot;&gt;- Lambdas restricted to only required actions/data.&amp;nbsp;&lt;/span&gt;&lt;/div&gt;&lt;div&gt;&lt;span style=&quot;background-color: transparent; color: light-dark(rgb(0, 0, 0), rgb(255, 255, 255));&quot;&gt;- Private subnets used for sensitive services (like RDS).&amp;nbsp;&lt;/span&gt;&lt;/div&gt;&lt;div&gt;&lt;span style=&quot;background-color: transparent; color: light-dark(rgb(0, 0, 0), rgb(255, 255, 255));&quot;&gt;- No public access to internal services, aligning with zero-trust principles.&lt;/span&gt;&lt;/div&gt;&lt;div&gt;&lt;span style=&quot;background-color: transparent; color: light-dark(rgb(0, 0, 0), rgb(255, 255, 255));&quot;&gt;&lt;br&gt;&lt;/span&gt;&lt;/div&gt;&lt;div&gt;&lt;span style=&quot;background-color: transparent;&quot;&gt;&lt;b&gt;4. CDN &amp;amp; Content Delivery&amp;nbsp;&lt;/b&gt;&lt;/span&gt;&lt;/div&gt;&lt;div&gt;&lt;span style=&quot;background-color: transparent;&quot;&gt;CloudFront CDN:&lt;/span&gt;&lt;/div&gt;&lt;div&gt;&lt;span style=&quot;background-color: transparent;&quot;&gt;- Configured with video S3 bucket as the origin.&amp;nbsp;&lt;/span&gt;&lt;/div&gt;&lt;div&gt;&lt;span style=&quot;background-color: transparent;&quot;&gt;- Caching strategy improves global latency for HLS playback.&amp;nbsp;&lt;/span&gt;&lt;/div&gt;&lt;div&gt;&lt;span style=&quot;background-color: transparent;&quot;&gt;&lt;br&gt;&lt;/span&gt;&lt;/div&gt;&lt;div&gt;&lt;span style=&quot;background-color: transparent;&quot;&gt;Cloudflare Enterprise CDN (Optional/Primary):&amp;nbsp;&lt;/span&gt;&lt;/div&gt;&lt;div&gt;&lt;span style=&quot;background-color: transparent;&quot;&gt;- Considered for external caching due to superior cost efficiency.&amp;nbsp;&lt;/span&gt;&lt;/div&gt;&lt;div&gt;&lt;span style=&quot;background-color: transparent;&quot;&gt;- CDN invalidation handled via dedicated Lambda.&lt;/span&gt;&lt;/div&gt;&lt;div&gt;&lt;span style=&quot;background-color: transparent;&quot;&gt;- S3 Transfer Accelerate can be turned on for &quot;Temp Storage&quot;&lt;/span&gt;&lt;/div&gt;&lt;div&gt;&lt;span style=&quot;background-color: transparent;&quot;&gt;&lt;br&gt;&lt;/span&gt;&lt;/div&gt;&lt;div&gt;&lt;span style=&quot;background-color: transparent;&quot;&gt;&lt;b&gt;5. Region Strategy &amp;amp; Fault Tolerance&lt;/b&gt;&lt;/span&gt;&lt;/div&gt;&lt;div&gt;&lt;span style=&quot;background-color: transparent;&quot;&gt;&lt;br&gt;&lt;/span&gt;&lt;/div&gt;&lt;div&gt;&lt;span style=&quot;background-color: transparent;&quot;&gt;- Primary Region: us-east-1. Serves as the central hub for master data, backups, and video assets. A multi-AZ RDS setup should be considered for high availability.&lt;/span&gt;&lt;/div&gt;&lt;div&gt;&lt;span style=&quot;background-color: transparent;&quot;&gt;- (Optional Enhancement)&amp;nbsp;&lt;/span&gt;&lt;span style=&quot;background-color: transparent; color: light-dark(rgb(0, 0, 0), rgb(255, 255, 255));&quot;&gt;Multi-region replication for S3 and RDS for disaster recovery&lt;/span&gt;&lt;/div&gt;&lt;div&gt;&lt;span style=&quot;background-color: transparent; color: light-dark(rgb(0, 0, 0), rgb(255, 255, 255));&quot;&gt;&lt;br&gt;&lt;/span&gt;&lt;/div&gt;&lt;div&gt;&lt;span style=&quot;background-color: transparent;&quot;&gt;&lt;b&gt;6. Observability &amp;amp; Monitoring&lt;/b&gt;&lt;/span&gt;&lt;/div&gt;&lt;div&gt;&lt;span style=&quot;background-color: transparent;&quot;&gt;&lt;br&gt;&lt;/span&gt;&lt;/div&gt;&lt;div&gt;&lt;span style=&quot;background-color: transparent;&quot;&gt;- CloudWatch Logs For Lambda invocations, API Gateway errors, and video processing events&lt;/span&gt;&lt;/div&gt;&lt;div&gt;&lt;span style=&quot;background-color: transparent;&quot;&gt;- Alarms &amp;amp; Dashboards To monitor critical events (e.g., upload failures, conversion errors, cache invalidations).&lt;/span&gt;&lt;/div&gt;&lt;div&gt;&lt;span style=&quot;background-color: transparent;&quot;&gt;&lt;br&gt;&lt;/span&gt;&lt;/div&gt;&lt;div&gt;&lt;b&gt;7. Cost Optimization&lt;/b&gt;&lt;span style=&quot;background-color: transparent;&quot;&gt;&lt;/span&gt;&lt;/div&gt;&lt;div&gt;&lt;br&gt;&lt;/div&gt;&lt;div&gt;- Lambdas and S3 Lifecycle Policies (Standard -&amp;gt; Standard IA) after X days&lt;/div&gt;&lt;div&gt;-&amp;nbsp;&lt;span style=&quot;background-color: transparent; color: light-dark(rgb(0, 0, 0), rgb(255, 255, 255));&quot;&gt;CloudFront logs to determine real usage (Custom automation to archive videos)&lt;/span&gt;&lt;/div&gt;&lt;div&gt;- Cloudflare Enterprise as alternative to CloudFront (or custom agreement with AWS)&lt;/div&gt;" style="text;whiteSpace=wrap;html=1;align=left;" vertex="1" parent="1">
          <mxGeometry x="2050.75" y="1562" width="416.01" height="751.49" as="geometry" />
        </mxCell>
        <mxCell id="ANkwzQRA43zdDnE30-9h-471" value="Deployment Diagram" style="text;html=1;align=left;verticalAlign=middle;whiteSpace=wrap;rounded=0;fontSize=32;fontStyle=1" vertex="1" parent="1">
          <mxGeometry x="1684.5" y="1200.87" width="754" height="38" as="geometry" />
        </mxCell>
        <mxCell id="ANkwzQRA43zdDnE30-9h-472" value="CMovie Streaming Platform - Admin API" style="text;html=1;align=left;verticalAlign=middle;whiteSpace=wrap;rounded=0;fontSize=24;" vertex="1" parent="1">
          <mxGeometry x="1684.5" y="1242.5" width="754" height="31" as="geometry" />
        </mxCell>
        <mxCell id="ANkwzQRA43zdDnE30-9h-473" value="Deployment Diagram" style="text;html=1;align=left;verticalAlign=middle;whiteSpace=wrap;rounded=0;fontSize=32;fontStyle=1" vertex="1" parent="1">
          <mxGeometry x="2511" y="1202.37" width="754" height="38" as="geometry" />
        </mxCell>
        <mxCell id="ANkwzQRA43zdDnE30-9h-474" value="CMovie Streaming Platform - User API" style="text;html=1;align=left;verticalAlign=middle;whiteSpace=wrap;rounded=0;fontSize=24;" vertex="1" parent="1">
          <mxGeometry x="2511" y="1244" width="754" height="31" as="geometry" />
        </mxCell>
        <mxCell id="ANkwzQRA43zdDnE30-9h-475" value="&lt;font style=&quot;color: rgb(255, 255, 255);&quot;&gt;&lt;b&gt;2&lt;/b&gt;&lt;/font&gt;" style="ellipse;whiteSpace=wrap;html=1;aspect=fixed;strokeColor=none;fillColor=#2B87FF;" vertex="1" parent="1">
          <mxGeometry x="3265" y="1181" width="28" height="28" as="geometry" />
        </mxCell>
        <mxCell id="ANkwzQRA43zdDnE30-9h-476" value="&lt;b&gt;1. Compute Layer&lt;/b&gt;&lt;div&gt;&lt;b&gt;&lt;br&gt;&lt;/b&gt;&lt;/div&gt;&lt;div&gt;&lt;b&gt;-&amp;nbsp;&lt;/b&gt;&lt;span style=&quot;background-color: transparent; color: light-dark(rgb(0, 0, 0), rgb(255, 255, 255));&quot;&gt;ECS on EC2 chosen due to stable and predictable load pattern.&lt;/span&gt;&lt;/div&gt;&lt;div&gt;&lt;span style=&quot;background-color: transparent; color: light-dark(rgb(0, 0, 0), rgb(255, 255, 255));&quot;&gt;-&amp;nbsp;&lt;/span&gt;&lt;span style=&quot;background-color: transparent; color: light-dark(rgb(0, 0, 0), rgb(255, 255, 255));&quot;&gt;Application Load Balancer (ALB) is used for routing traffic to ECS services.&lt;/span&gt;&lt;/div&gt;&lt;div&gt;-&amp;nbsp;&lt;span style=&quot;background-color: transparent; color: light-dark(rgb(0, 0, 0), rgb(255, 255, 255));&quot; data-end=&quot;503&quot; data-start=&quot;474&quot;&gt;Auto Scaling Policies&lt;/span&gt;&lt;span style=&quot;background-color: transparent; color: light-dark(rgb(0, 0, 0), rgb(255, 255, 255));&quot;&gt;&amp;nbsp;to ECS services based on CPU/memory&lt;/span&gt;&lt;/div&gt;&lt;div&gt;&lt;span style=&quot;background-color: transparent; color: light-dark(rgb(0, 0, 0), rgb(255, 255, 255));&quot;&gt;- EC2 Instances deployed in Multi-AZ to achieve redundancy&lt;/span&gt;&lt;/div&gt;&lt;div&gt;&lt;span style=&quot;background-color: transparent; color: light-dark(rgb(0, 0, 0), rgb(255, 255, 255));&quot;&gt;&lt;br&gt;&lt;/span&gt;&lt;/div&gt;&lt;div&gt;&lt;b&gt;2. Networking &amp;amp; Global Access&lt;/b&gt;&lt;span style=&quot;background-color: transparent; color: light-dark(rgb(0, 0, 0), rgb(255, 255, 255));&quot;&gt;&lt;/span&gt;&lt;/div&gt;&lt;div&gt;&lt;br&gt;&lt;/div&gt;&lt;div&gt;-&amp;nbsp;&lt;span style=&quot;background-color: transparent; color: light-dark(rgb(0, 0, 0), rgb(255, 255, 255));&quot;&gt;Single-region (us-east-1) by default.&lt;/span&gt;&lt;/div&gt;&lt;div&gt;&lt;span style=&quot;background-color: transparent; color: light-dark(rgb(0, 0, 0), rgb(255, 255, 255));&quot;&gt;-&amp;nbsp;&lt;/span&gt;&lt;span style=&quot;background-color: transparent; color: light-dark(rgb(0, 0, 0), rgb(255, 255, 255));&quot;&gt;Future readiness for Global Accelerator or Multi-region setup&lt;/span&gt;&lt;/div&gt;&lt;div&gt;&lt;span style=&quot;background-color: transparent; color: light-dark(rgb(0, 0, 0), rgb(255, 255, 255));&quot;&gt;-&amp;nbsp;&lt;/span&gt;&lt;span style=&quot;background-color: transparent; color: light-dark(rgb(0, 0, 0), rgb(255, 255, 255));&quot; data-end=&quot;1092&quot; data-start=&quot;1075&quot;&gt;VPC endpoints&lt;/span&gt;&lt;span style=&quot;background-color: transparent; color: light-dark(rgb(0, 0, 0), rgb(255, 255, 255));&quot;&gt;&amp;nbsp;for internal AWS communication&lt;/span&gt;&lt;/div&gt;&lt;div&gt;&lt;br&gt;&lt;/div&gt;&lt;div&gt;&lt;b&gt;3.&amp;nbsp;&lt;span style=&quot;background-color: transparent; color: light-dark(rgb(0, 0, 0), rgb(255, 255, 255));&quot;&gt;User Location / Personalization&lt;/span&gt;&lt;/b&gt;&lt;/div&gt;&lt;div&gt;&lt;span style=&quot;background-color: transparent; color: light-dark(rgb(0, 0, 0), rgb(255, 255, 255));&quot;&gt;&lt;br&gt;&lt;/span&gt;&lt;/div&gt;&lt;div&gt;&lt;span style=&quot;background-color: transparent; color: light-dark(rgb(0, 0, 0), rgb(255, 255, 255));&quot;&gt;-&amp;nbsp;&lt;/span&gt;&lt;strike&gt;&lt;span style=&quot;background-color: transparent; color: light-dark(rgb(0, 0, 0), rgb(255, 255, 255));&quot;&gt;User&#39;s location extracted from CloudFront headers for signed URL or cookie logic (&lt;/span&gt;&lt;span style=&quot;background-color: transparent; color: light-dark(rgb(0, 0, 0), rgb(255, 255, 255));&quot;&gt;Geo-based restrictions)&lt;/span&gt;&lt;/strike&gt;&lt;/div&gt;&lt;div&gt;&lt;span style=&quot;background-color: transparent; color: light-dark(rgb(0, 0, 0), rgb(255, 255, 255));&quot;&gt;&lt;br&gt;&lt;/span&gt;&lt;/div&gt;&lt;div&gt;&lt;b&gt;&lt;span style=&quot;background-color: transparent; color: light-dark(rgb(0, 0, 0), rgb(255, 255, 255));&quot;&gt;4.&amp;nbsp;&lt;/span&gt;&lt;span style=&quot;background-color: transparent; color: light-dark(rgb(0, 0, 0), rgb(255, 255, 255));&quot;&gt;Data Layer (Caching + DB)&lt;/span&gt;&lt;/b&gt;&lt;/div&gt;&lt;div&gt;&lt;span style=&quot;background-color: transparent; color: light-dark(rgb(0, 0, 0), rgb(255, 255, 255));&quot;&gt;&lt;br&gt;&lt;/span&gt;&lt;/div&gt;&lt;div&gt;&lt;span style=&quot;background-color: transparent; color: light-dark(rgb(0, 0, 0), rgb(255, 255, 255));&quot;&gt;-&amp;nbsp;&lt;/span&gt;&lt;span style=&quot;background-color: transparent; color: light-dark(rgb(0, 0, 0), rgb(255, 255, 255));&quot;&gt;Cache stores session and personalization data (e.g. video resume points, homepage suggestions).&lt;/span&gt;&lt;/div&gt;&lt;div&gt;&lt;span style=&quot;background-color: transparent; color: light-dark(rgb(0, 0, 0), rgb(255, 255, 255));&quot;&gt;-&amp;nbsp;&lt;/span&gt;&lt;span style=&quot;background-color: transparent; color: light-dark(rgb(0, 0, 0), rgb(255, 255, 255));&quot;&gt;RDS Master/Replica setup used for user-generated content (users, subscription status, comments, etc.) and metadata.&lt;/span&gt;&lt;/div&gt;&lt;div&gt;&lt;span style=&quot;background-color: transparent; color: light-dark(rgb(0, 0, 0), rgb(255, 255, 255));&quot;&gt;-&amp;nbsp;&lt;/span&gt;&lt;span style=&quot;background-color: transparent; color: light-dark(rgb(0, 0, 0), rgb(255, 255, 255));&quot;&gt;Full-text/fuzzy search with Postgres +&amp;nbsp;&lt;/span&gt;&lt;code style=&quot;background-color: transparent; color: light-dark(rgb(0, 0, 0), rgb(255, 255, 255));&quot; data-end=&quot;1866&quot; data-start=&quot;1857&quot;&gt;pg_trgm&lt;/code&gt;&lt;span style=&quot;background-color: transparent; color: light-dark(rgb(0, 0, 0), rgb(255, 255, 255));&quot;&gt;.&amp;nbsp;&lt;/span&gt;&lt;span style=&quot;background-color: transparent; color: light-dark(rgb(0, 0, 0), rgb(255, 255, 255));&quot;&gt;If fuzzy search becomes a bottleneck:&amp;nbsp;&lt;/span&gt;&lt;span style=&quot;background-color: transparent; color: light-dark(rgb(0, 0, 0), rgb(255, 255, 255));&quot; data-end=&quot;2267&quot; data-start=&quot;2253&quot;&gt;&lt;i&gt;&lt;u&gt;OpenSearch&lt;/u&gt;&lt;/i&gt;&lt;/span&gt;&lt;strong style=&quot;background-color: transparent; color: light-dark(rgb(0, 0, 0), rgb(255, 255, 255));&quot; data-end=&quot;2267&quot; data-start=&quot;2253&quot;&gt; &lt;/strong&gt;&lt;span style=&quot;background-color: transparent; color: light-dark(rgb(0, 0, 0), rgb(255, 255, 255));&quot; data-end=&quot;2267&quot; data-start=&quot;2253&quot;&gt;as search engine recommended&lt;/span&gt;&lt;/div&gt;&lt;div&gt;&lt;strong style=&quot;background-color: transparent; color: light-dark(rgb(0, 0, 0), rgb(255, 255, 255));&quot; data-end=&quot;2267&quot; data-start=&quot;2253&quot;&gt;&lt;br&gt;&lt;/strong&gt;&lt;/div&gt;&lt;div&gt;&lt;b&gt;&lt;span style=&quot;background-color: transparent; color: light-dark(rgb(0, 0, 0), rgb(255, 255, 255));&quot; data-end=&quot;2267&quot; data-start=&quot;2253&quot;&gt;5.&amp;nbsp;&lt;/span&gt;&lt;span style=&quot;background-color: transparent; color: light-dark(rgb(0, 0, 0), rgb(255, 255, 255));&quot;&gt;Monitoring &amp;amp; Observability&lt;/span&gt;&lt;/b&gt;&lt;/div&gt;&lt;div&gt;&lt;span style=&quot;background-color: transparent; color: light-dark(rgb(0, 0, 0), rgb(255, 255, 255));&quot;&gt;&lt;br&gt;&lt;/span&gt;&lt;/div&gt;&lt;div&gt;&lt;span style=&quot;background-color: transparent; color: light-dark(rgb(0, 0, 0), rgb(255, 255, 255));&quot;&gt;-&amp;nbsp;&lt;/span&gt;&lt;span style=&quot;background-color: transparent; color: light-dark(rgb(0, 0, 0), rgb(255, 255, 255));&quot;&gt;CloudWatch for logging and metrics.&lt;/span&gt;&lt;/div&gt;&lt;div&gt;-&amp;nbsp;&lt;span style=&quot;background-color: transparent; color: light-dark(rgb(0, 0, 0), rgb(255, 255, 255));&quot;&gt;Using Container Registry (ECR) for storing Docker images.&lt;/span&gt;&lt;/div&gt;&lt;div&gt;&lt;span style=&quot;background-color: transparent; color: light-dark(rgb(0, 0, 0), rgb(255, 255, 255));&quot;&gt;&lt;br&gt;&lt;/span&gt;&lt;/div&gt;&lt;div&gt;&lt;br&gt;&lt;/div&gt;" style="text;whiteSpace=wrap;html=1;align=left;" vertex="1" parent="1">
          <mxGeometry x="2864.15" y="1405.58" width="416.01" height="448.13" as="geometry" />
        </mxCell>
        <mxCell id="ANkwzQRA43zdDnE30-9h-477" value="&lt;div&gt;&lt;b&gt;&lt;span style=&quot;background-color: transparent; color: light-dark(rgb(0, 0, 0), rgb(255, 255, 255));&quot;&gt;6.&amp;nbsp;&lt;/span&gt;&lt;span style=&quot;background-color: transparent; color: light-dark(rgb(0, 0, 0), rgb(255, 255, 255));&quot;&gt;Security&lt;/span&gt;&lt;/b&gt;&lt;/div&gt;&lt;div&gt;&lt;span style=&quot;background-color: transparent; color: light-dark(rgb(0, 0, 0), rgb(255, 255, 255));&quot;&gt;&lt;br&gt;&lt;/span&gt;&lt;/div&gt;&lt;div&gt;&lt;span style=&quot;background-color: transparent; color: light-dark(rgb(0, 0, 0), rgb(255, 255, 255));&quot;&gt;-&amp;nbsp;&lt;/span&gt;&lt;span style=&quot;background-color: transparent; color: light-dark(rgb(0, 0, 0), rgb(255, 255, 255));&quot;&gt;TLS everywhere&lt;/span&gt;&lt;/div&gt;&lt;div&gt;&lt;span style=&quot;background-color: transparent; color: light-dark(rgb(0, 0, 0), rgb(255, 255, 255));&quot;&gt;-&amp;nbsp;&lt;/span&gt;&lt;span style=&quot;background-color: transparent; color: light-dark(rgb(0, 0, 0), rgb(255, 255, 255));&quot;&gt;IAM roles for ECS Tasks&lt;/span&gt;&lt;/div&gt;&lt;div&gt;&lt;span style=&quot;background-color: transparent; color: light-dark(rgb(0, 0, 0), rgb(255, 255, 255));&quot;&gt;-&amp;nbsp;&lt;/span&gt;&lt;span style=&quot;background-color: transparent; color: light-dark(rgb(0, 0, 0), rgb(255, 255, 255));&quot; data-end=&quot;3401&quot; data-start=&quot;3362&quot;&gt;RDS encryption at rest + in-transit&lt;/span&gt;&lt;span style=&quot;background-color: transparent; color: light-dark(rgb(0, 0, 0), rgb(255, 255, 255));&quot;&gt;.&lt;/span&gt;&lt;/div&gt;&lt;div&gt;&lt;span style=&quot;background-color: transparent; color: light-dark(rgb(0, 0, 0), rgb(255, 255, 255));&quot;&gt;-&amp;nbsp;&lt;/span&gt;&lt;span style=&quot;background-color: transparent; color: light-dark(rgb(0, 0, 0), rgb(255, 255, 255));&quot;&gt;Security Groups for RDS and Compute&lt;/span&gt;&lt;/div&gt;&lt;div&gt;&lt;span style=&quot;background-color: transparent; color: light-dark(rgb(0, 0, 0), rgb(255, 255, 255));&quot;&gt;&lt;br&gt;&lt;/span&gt;&lt;/div&gt;&lt;div&gt;&lt;div&gt;&lt;b&gt;7. Cost Optimization&lt;/b&gt;&lt;span style=&quot;background-color: transparent;&quot;&gt;&lt;/span&gt;&lt;/div&gt;&lt;div&gt;&lt;br&gt;&lt;/div&gt;&lt;div&gt;-&amp;nbsp;&lt;span style=&quot;background-color: transparent; color: light-dark(rgb(0, 0, 0), rgb(255, 255, 255));&quot; data-end=&quot;528&quot; data-start=&quot;505&quot;&gt;Auto Scale EC2 ASGs&lt;/span&gt;&lt;span style=&quot;background-color: transparent; color: light-dark(rgb(0, 0, 0), rgb(255, 255, 255));&quot;&gt; with predictive scaling to match load patterns (e.g. based on CPU, weekends, evening time)&lt;/span&gt;&lt;/div&gt;&lt;div&gt;-&amp;nbsp;&lt;span style=&quot;background-color: transparent; color: light-dark(rgb(0, 0, 0), rgb(255, 255, 255));&quot; data-end=&quot;624&quot; data-start=&quot;585&quot;&gt;Savings Plans or Reserved Instances&lt;/span&gt;&lt;span style=&quot;background-color: transparent; color: light-dark(rgb(0, 0, 0), rgb(255, 255, 255));&quot;&gt; for always-on services&lt;/span&gt;&lt;/div&gt;&lt;div&gt;- L&lt;span style=&quot;background-color: transparent; color: light-dark(rgb(0, 0, 0), rgb(255, 255, 255));&quot;&gt;ogs in CloudWatch stored for 7–14 days max&lt;/span&gt;&lt;/div&gt;&lt;/div&gt;" style="text;whiteSpace=wrap;html=1;align=left;" vertex="1" parent="1">
          <mxGeometry x="2523.6800000000003" y="1878.71" width="761.47" height="238" as="geometry" />
        </mxCell>
        <mxCell id="ANkwzQRA43zdDnE30-9h-478" value="&lt;font style=&quot;color: rgb(255, 255, 255);&quot;&gt;&lt;b&gt;3&lt;/b&gt;&lt;/font&gt;" style="ellipse;whiteSpace=wrap;html=1;aspect=fixed;strokeColor=none;fillColor=#2B87FF;" vertex="1" parent="1">
          <mxGeometry x="1604.12" y="2374.5" width="28" height="28" as="geometry" />
        </mxCell>
        <mxCell id="ANkwzQRA43zdDnE30-9h-479" value="Deployment Diagram" style="text;html=1;align=left;verticalAlign=middle;whiteSpace=wrap;rounded=0;fontSize=32;fontStyle=1" vertex="1" parent="1">
          <mxGeometry x="848" y="2394.37" width="754" height="38" as="geometry" />
        </mxCell>
        <mxCell id="ANkwzQRA43zdDnE30-9h-480" value="CMovie Streaming Platform - Admin UI" style="text;html=1;align=left;verticalAlign=middle;whiteSpace=wrap;rounded=0;fontSize=24;" vertex="1" parent="1">
          <mxGeometry x="848" y="2436" width="754" height="31" as="geometry" />
        </mxCell>
        <mxCell id="ANkwzQRA43zdDnE30-9h-481" value="&lt;font style=&quot;color: rgb(255, 255, 255);&quot;&gt;&lt;b&gt;4&lt;/b&gt;&lt;/font&gt;" style="ellipse;whiteSpace=wrap;html=1;aspect=fixed;strokeColor=none;fillColor=#2B87FF;" vertex="1" parent="1">
          <mxGeometry x="2434" y="2371" width="28" height="28" as="geometry" />
        </mxCell>
        <mxCell id="ANkwzQRA43zdDnE30-9h-482" value="Deployment Diagram" style="text;html=1;align=left;verticalAlign=middle;whiteSpace=wrap;rounded=0;fontSize=32;fontStyle=1" vertex="1" parent="1">
          <mxGeometry x="1677.88" y="2390.87" width="754" height="38" as="geometry" />
        </mxCell>
        <mxCell id="ANkwzQRA43zdDnE30-9h-483" value="CMovie Streaming Platform - User UI" style="text;html=1;align=left;verticalAlign=middle;whiteSpace=wrap;rounded=0;fontSize=24;" vertex="1" parent="1">
          <mxGeometry x="1677.88" y="2432.5" width="754" height="31" as="geometry" />
        </mxCell>
        <mxCell id="ANkwzQRA43zdDnE30-9h-484" value="&lt;b&gt;1. Frontend Delivery&lt;/b&gt;&lt;div&gt;&lt;b&gt;&lt;br&gt;&lt;/b&gt;&lt;/div&gt;&lt;div&gt;-&amp;nbsp;&lt;span style=&quot;background-color: transparent; color: light-dark(rgb(0, 0, 0), rgb(255, 255, 255));&quot;&gt;A combination of &lt;/span&gt;&lt;span style=&quot;background-color: transparent; color: light-dark(rgb(0, 0, 0), rgb(255, 255, 255));&quot; data-end=&quot;425&quot; data-start=&quot;404&quot;&gt;Amazon CloudFront&lt;/span&gt;&lt;span style=&quot;background-color: transparent; color: light-dark(rgb(0, 0, 0), rgb(255, 255, 255));&quot;&gt; and &lt;/span&gt;&lt;span style=&quot;background-color: transparent; color: light-dark(rgb(0, 0, 0), rgb(255, 255, 255));&quot; data-end=&quot;443&quot; data-start=&quot;430&quot;&gt;Amazon S3&lt;/span&gt;&lt;span style=&quot;background-color: transparent; color: light-dark(rgb(0, 0, 0), rgb(255, 255, 255));&quot;&gt; is used to host and deliver the SPA (Single Page Application).&lt;/span&gt;&lt;/div&gt;&lt;div&gt;&lt;span style=&quot;background-color: transparent; color: light-dark(rgb(0, 0, 0), rgb(255, 255, 255));&quot;&gt;-&amp;nbsp;&lt;/span&gt;&lt;span style=&quot;background-color: transparent; color: light-dark(rgb(0, 0, 0), rgb(255, 255, 255));&quot;&gt;This approach was chosen due to its &lt;/span&gt;&lt;span style=&quot;background-color: transparent; color: light-dark(rgb(0, 0, 0), rgb(255, 255, 255));&quot; data-end=&quot;603&quot; data-start=&quot;549&quot;&gt;simplicity, high availability, and cost-efficiency&lt;/span&gt;&lt;/div&gt;&lt;div&gt;&lt;br&gt;&lt;/div&gt;&lt;div&gt;&lt;b&gt;2.&amp;nbsp;&lt;span style=&quot;background-color: transparent; color: light-dark(rgb(0, 0, 0), rgb(255, 255, 255));&quot;&gt;Authentication &amp;amp; Authorization&lt;/span&gt;&lt;/b&gt;&lt;/div&gt;&lt;div&gt;&lt;span style=&quot;background-color: transparent; color: light-dark(rgb(0, 0, 0), rgb(255, 255, 255));&quot;&gt;&lt;br&gt;&lt;/span&gt;&lt;/div&gt;&lt;div&gt;&lt;span style=&quot;background-color: transparent; color: light-dark(rgb(0, 0, 0), rgb(255, 255, 255));&quot;&gt;-&amp;nbsp;&lt;/span&gt;&lt;span style=&quot;background-color: transparent; color: light-dark(rgb(0, 0, 0), rgb(255, 255, 255));&quot;&gt;The Admin interface is protected using &lt;/span&gt;&lt;span style=&quot;background-color: transparent; color: light-dark(rgb(0, 0, 0), rgb(255, 255, 255));&quot; data-end=&quot;1148&quot; data-start=&quot;1125&quot;&gt;username + password&lt;/span&gt;&lt;span style=&quot;background-color: transparent; color: light-dark(rgb(0, 0, 0), rgb(255, 255, 255));&quot;&gt; plus &lt;/span&gt;&lt;span style=&quot;background-color: transparent; color: light-dark(rgb(0, 0, 0), rgb(255, 255, 255));&quot; data-end=&quot;1191&quot; data-start=&quot;1154&quot;&gt;Multi-Factor Authentication (MFA)&lt;/span&gt;&lt;span style=&quot;background-color: transparent; color: light-dark(rgb(0, 0, 0), rgb(255, 255, 255));&quot;&gt;.&lt;/span&gt;&lt;/div&gt;&lt;div&gt;&lt;span style=&quot;background-color: transparent; color: light-dark(rgb(0, 0, 0), rgb(255, 255, 255));&quot;&gt;-&amp;nbsp;&lt;/span&gt;&lt;span style=&quot;background-color: transparent; color: light-dark(rgb(0, 0, 0), rgb(255, 255, 255));&quot; data-end=&quot;1252&quot; data-start=&quot;1234&quot;&gt;Amazon Cognito&lt;/span&gt;&lt;span style=&quot;background-color: transparent; color: light-dark(rgb(0, 0, 0), rgb(255, 255, 255));&quot;&gt; is integrated for handling identity and access management for &quot;Content Moderators&quot;.&lt;/span&gt;&lt;/div&gt;&lt;div&gt;&lt;span style=&quot;background-color: transparent; color: light-dark(rgb(0, 0, 0), rgb(255, 255, 255));&quot;&gt;-&amp;nbsp;&lt;/span&gt;&lt;span style=&quot;background-color: transparent; color: light-dark(rgb(0, 0, 0), rgb(255, 255, 255));&quot;&gt;Cognito supports MFA and secure token-based auth (JWT)&lt;/span&gt;&lt;/div&gt;&lt;div&gt;&lt;span style=&quot;background-color: transparent; color: light-dark(rgb(0, 0, 0), rgb(255, 255, 255));&quot;&gt;-&amp;nbsp;&lt;/span&gt;&lt;span style=&quot;background-color: transparent; color: light-dark(rgb(0, 0, 0), rgb(255, 255, 255));&quot; data-end=&quot;1438&quot; data-start=&quot;1405&quot;&gt;Self-registration is disabled&lt;/span&gt;&lt;span style=&quot;background-color: transparent; color: light-dark(rgb(0, 0, 0), rgb(255, 255, 255));&quot;&gt; — new moderators are only added manually or via an internal request flow to ensure tighter access control&lt;/span&gt;&lt;/div&gt;&lt;div&gt;&lt;span style=&quot;background-color: transparent; color: light-dark(rgb(0, 0, 0), rgb(255, 255, 255));&quot;&gt;&lt;br&gt;&lt;/span&gt;&lt;/div&gt;&lt;div&gt;&lt;span style=&quot;background-color: transparent; color: light-dark(rgb(0, 0, 0), rgb(255, 255, 255));&quot;&gt;&lt;b&gt;3. Security&lt;/b&gt;&lt;/span&gt;&lt;/div&gt;&lt;div&gt;&lt;span style=&quot;background-color: transparent; color: light-dark(rgb(0, 0, 0), rgb(255, 255, 255));&quot;&gt;&lt;br&gt;&lt;/span&gt;&lt;/div&gt;&lt;div&gt;&lt;span style=&quot;background-color: transparent; color: light-dark(rgb(0, 0, 0), rgb(255, 255, 255));&quot;&gt;- TLS everywhere&lt;/span&gt;&lt;/div&gt;&lt;div&gt;&lt;span style=&quot;background-color: transparent; color: light-dark(rgb(0, 0, 0), rgb(255, 255, 255));&quot;&gt;-&amp;nbsp;&lt;/span&gt;&lt;span style=&quot;background-color: transparent; color: light-dark(rgb(0, 0, 0), rgb(255, 255, 255));&quot; data-end=&quot;2241&quot; data-start=&quot;2230&quot;&gt;AWS WAF&lt;/span&gt;&lt;span style=&quot;background-color: transparent; color: light-dark(rgb(0, 0, 0), rgb(255, 255, 255));&quot;&gt; added in front of CloudFront to prevent abuse (rate limiting, IP blocklists)&lt;/span&gt;&lt;/div&gt;" style="text;whiteSpace=wrap;html=1;align=left;" vertex="1" parent="1">
          <mxGeometry x="1159.76" y="2547.13" width="416.01" height="359.5" as="geometry" />
        </mxCell>
        <mxCell id="ANkwzQRA43zdDnE30-9h-485" value="" style="sketch=0;points=[[0,0,0],[0.25,0,0],[0.5,0,0],[0.75,0,0],[1,0,0],[0,1,0],[0.25,1,0],[0.5,1,0],[0.75,1,0],[1,1,0],[0,0.25,0],[0,0.5,0],[0,0.75,0],[1,0.25,0],[1,0.5,0],[1,0.75,0]];outlineConnect=0;fontColor=#232F3E;fillColor=#DD344C;strokeColor=#ffffff;dashed=0;verticalLabelPosition=bottom;verticalAlign=top;align=center;html=1;fontSize=12;fontStyle=0;aspect=fixed;shape=mxgraph.aws4.resourceIcon;resIcon=mxgraph.aws4.waf;" vertex="1" parent="1">
          <mxGeometry x="1015.9100000000001" y="2719.13" width="50" height="50" as="geometry" />
        </mxCell>
        <mxCell id="ANkwzQRA43zdDnE30-9h-486" value="" style="endArrow=classic;html=1;rounded=0;exitX=1;exitY=0.5;exitDx=0;exitDy=0;exitPerimeter=0;entryX=0;entryY=0.5;entryDx=0;entryDy=0;entryPerimeter=0;strokeWidth=0.5;strokeColor=#999999;" edge="1" parent="1" source="ANkwzQRA43zdDnE30-9h-379" target="ANkwzQRA43zdDnE30-9h-485">
          <mxGeometry width="50" height="50" relative="1" as="geometry">
            <mxPoint x="973.2499999999995" y="2702.13" as="sourcePoint" />
            <mxPoint x="973" y="2729.5" as="targetPoint" />
          </mxGeometry>
        </mxCell>
        <mxCell id="ANkwzQRA43zdDnE30-9h-487" value="" style="endArrow=classic;html=1;rounded=0;strokeWidth=0.5;strokeColor=#999999;" edge="1" parent="1">
          <mxGeometry width="50" height="50" relative="1" as="geometry">
            <mxPoint x="1016" y="2751.5" as="sourcePoint" />
            <mxPoint x="989" y="2751.5" as="targetPoint" />
          </mxGeometry>
        </mxCell>
        <mxCell id="ANkwzQRA43zdDnE30-9h-488" value="&lt;font color=&quot;#999999&quot;&gt;&lt;span style=&quot;font-size: 10px;&quot;&gt;WAF&lt;/span&gt;&lt;/font&gt;" style="text;html=1;align=center;verticalAlign=middle;whiteSpace=wrap;rounded=0;movable=1;resizable=1;rotatable=1;deletable=1;editable=1;locked=0;connectable=1;" vertex="1" parent="1">
          <mxGeometry x="1002.2299999999993" y="2766.13" width="81.01" height="16" as="geometry" />
        </mxCell>
        <mxCell id="ANkwzQRA43zdDnE30-9h-490" value="" style="sketch=0;pointerEvents=1;shadow=0;dashed=0;html=1;strokeColor=none;labelPosition=center;verticalLabelPosition=bottom;verticalAlign=top;align=center;fillColor=#505050;shape=mxgraph.mscae.intune.user_group" vertex="1" parent="1">
          <mxGeometry x="2676.1800000000007" y="1337.9999999999998" width="50" height="37" as="geometry" />
        </mxCell>
        <mxCell id="ANkwzQRA43zdDnE30-9h-491" value="&lt;font color=&quot;#999999&quot;&gt;&lt;span style=&quot;font-size: 10px;&quot;&gt;End-Users&lt;/span&gt;&lt;/font&gt;" style="text;html=1;align=center;verticalAlign=middle;whiteSpace=wrap;rounded=0;movable=1;resizable=1;rotatable=1;deletable=1;editable=1;locked=0;connectable=1;" vertex="1" parent="1">
          <mxGeometry x="2652.2200000000003" y="1372.68" width="97.93" height="15.95" as="geometry" />
        </mxCell>
        <mxCell id="ANkwzQRA43zdDnE30-9h-493" value="" style="endArrow=classic;html=1;rounded=0;exitX=0.5;exitY=1;exitDx=0;exitDy=0;entryX=0.5;entryY=0;entryDx=0;entryDy=0;entryPerimeter=0;" edge="1" parent="1" source="ANkwzQRA43zdDnE30-9h-491" target="ANkwzQRA43zdDnE30-9h-369">
          <mxGeometry width="50" height="50" relative="1" as="geometry">
            <mxPoint x="2658" y="1477" as="sourcePoint" />
            <mxPoint x="2687" y="1477" as="targetPoint" />
          </mxGeometry>
        </mxCell>
        <mxCell id="ANkwzQRA43zdDnE30-9h-494" value="&lt;span style=&quot;background-color: rgb(255, 255, 255);&quot;&gt;&lt;b&gt;Decisions:&lt;/b&gt;&lt;/span&gt;&lt;div&gt;&lt;span style=&quot;background-color: rgb(255, 255, 255);&quot;&gt;&lt;br&gt;&lt;/span&gt;&lt;/div&gt;&lt;div&gt;&lt;span style=&quot;background-color: rgb(255, 255, 255);&quot;&gt;- Video Storage (S3 + CloudFront + CloudFlare)&lt;/span&gt;&lt;/div&gt;&lt;div&gt;&lt;span style=&quot;background-color: rgb(255, 255, 255);&quot;&gt;- Data Storage (Aurora Postgres)&lt;/span&gt;&lt;/div&gt;&lt;font style=&quot;background-color: light-dark(#ffffff, var(--ge-dark-color, #121212)); color: rgb(0, 0, 0);&quot;&gt;-&amp;nbsp;&lt;/font&gt;&lt;font style=&quot;background-color: light-dark(#ffffff, var(--ge-dark-color, #121212)); color: rgb(0, 0, 0);&quot;&gt;EC2 Instance =&amp;nbsp;&lt;/font&gt;&lt;span style=&quot;color: light-dark(rgb(0, 0, 0), rgb(255, 255, 255)); background-color: transparent;&quot;&gt;c7g.2xlarge (3 per AZs)&lt;/span&gt;&lt;div&gt;&lt;span style=&quot;color: light-dark(rgb(0, 0, 0), rgb(255, 255, 255)); background-color: transparent;&quot;&gt;- Load Balancer = ALB&lt;/span&gt;&lt;/div&gt;&lt;div&gt;-&amp;nbsp;&lt;span style=&quot;background-color: light-dark(#ffffff, var(--ge-dark-color, #121212)); color: light-dark(rgb(0, 0, 0), rgb(255, 255, 255));&quot;&gt;If CPU &amp;gt; 75% for 2 min → add 2 instances&amp;nbsp;&amp;nbsp;&lt;/span&gt;&lt;/div&gt;&lt;div&gt;&lt;font style=&quot;background-color: light-dark(#ffffff, var(--ge-dark-color, #121212)); color: rgb(0, 0, 0);&quot;&gt;&lt;div style=&quot;color: rgb(0, 0, 0);&quot;&gt;- If CPU &amp;lt; 30% for 5 min → remove 1 instance&amp;nbsp;&amp;nbsp;&lt;/div&gt;&lt;div style=&quot;color: rgb(0, 0, 0);&quot;&gt;&lt;br&gt;&lt;/div&gt;&lt;div style=&quot;color: rgb(0, 0, 0);&quot;&gt;&lt;b&gt;Costs:&lt;/b&gt;&lt;/div&gt;&lt;div style=&quot;color: rgb(0, 0, 0);&quot;&gt;&lt;br&gt;&lt;/div&gt;&lt;div style=&quot;color: rgb(0, 0, 0);&quot;&gt;- x3 EC2&amp;nbsp;&lt;span style=&quot;background-color: transparent; color: light-dark(rgb(0, 0, 0), rgb(255, 255, 255));&quot;&gt;c7g.2xlarge (Savings Plan 3y) = $300 month (for server)&lt;/span&gt;&lt;/div&gt;&lt;div style=&quot;color: rgb(0, 0, 0);&quot;&gt;&lt;span style=&quot;background-color: transparent; color: light-dark(rgb(0, 0, 0), rgb(255, 255, 255));&quot;&gt;- x3&amp;nbsp;&lt;/span&gt;&lt;span style=&quot;background-color: light-dark(#ffffff, var(--ge-dark-color, #121212)); color: light-dark(rgb(0, 0, 0), rgb(255, 255, 255));&quot;&gt;EC2&amp;nbsp;&lt;/span&gt;&lt;span style=&quot;background-color: transparent; color: light-dark(rgb(0, 0, 0), rgb(255, 255, 255));&quot;&gt;c7g.2xlarge (Savings Plan 3y) = $300 month (for UI)&lt;/span&gt;&lt;/div&gt;&lt;div style=&quot;color: rgb(0, 0, 0);&quot;&gt;&lt;span style=&quot;background-color: transparent; color: light-dark(rgb(0, 0, 0), rgb(255, 255, 255));&quot;&gt;- x1 S3 (150TB) = $3.500&lt;/span&gt;&lt;/div&gt;&lt;div style=&quot;&quot;&gt;&lt;span style=&quot;color: light-dark(rgb(0, 0, 0), rgb(255, 255, 255)); background-color: transparent;&quot;&gt;- x2 RDS&amp;nbsp;&lt;/span&gt;&lt;span style=&quot;background-color: transparent;&quot;&gt;db.r6g.2xlarge = $2000 month&lt;/span&gt;&lt;/div&gt;&lt;div style=&quot;&quot;&gt;&lt;span style=&quot;background-color: transparent;&quot;&gt;- x2 Elasticache cache.m5.xlarge = $1400&lt;/span&gt;&lt;/div&gt;&lt;div style=&quot;&quot;&gt;&lt;span style=&quot;background-color: transparent;&quot;&gt;- x2 ALB = $5000 (frontend + backend)&lt;/span&gt;&lt;/div&gt;&lt;div style=&quot;&quot;&gt;&lt;span style=&quot;background-color: transparent;&quot;&gt;- Route53 = $100&lt;/span&gt;&lt;/div&gt;&lt;div style=&quot;&quot;&gt;- CloudWatch 500GB = $250&lt;/div&gt;&lt;div style=&quot;&quot;&gt;- Media Convert?&lt;/div&gt;&lt;div style=&quot;&quot;&gt;&lt;br&gt;&lt;/div&gt;&lt;div style=&quot;&quot;&gt;- CloudFront &amp;gt; 2$m per month&lt;span style=&quot;background-color: light-dark(#ffffff, var(--ge-dark-color, #121212));&quot;&gt;&amp;nbsp;(Video content)&lt;/span&gt;&lt;/div&gt;&lt;div style=&quot;&quot;&gt;&lt;span style=&quot;background-color: light-dark(#ffffff, var(--ge-dark-color, #121212));&quot;&gt;- CloudFront ~1$m per month (UI)&lt;/span&gt;&lt;/div&gt;&lt;div style=&quot;&quot;&gt;&lt;span style=&quot;background-color: light-dark(#ffffff, var(--ge-dark-color, #121212));&quot;&gt;&lt;br&gt;&lt;/span&gt;&lt;/div&gt;&lt;div style=&quot;&quot;&gt;&lt;br&gt;&lt;/div&gt;&lt;div style=&quot;&quot;&gt;&lt;br&gt;&lt;/div&gt;&lt;div style=&quot;&quot;&gt;&lt;span style=&quot;background-color: transparent;&quot;&gt;&lt;br&gt;&lt;/span&gt;&lt;/div&gt;&lt;/font&gt;&lt;/div&gt;" style="text;whiteSpace=wrap;html=1;align=left;" vertex="1" parent="1">
          <mxGeometry x="1250.12" y="1319" width="382" height="597" as="geometry" />
        </mxCell>
        <mxCell id="ANkwzQRA43zdDnE30-9h-496" value="&lt;b&gt;1. Frontend Delivery&lt;/b&gt;&lt;div&gt;&lt;b&gt;&lt;br&gt;&lt;/b&gt;&lt;/div&gt;&lt;div&gt;-&amp;nbsp;&lt;span style=&quot;background-color: transparent; color: light-dark(rgb(0, 0, 0), rgb(255, 255, 255));&quot;&gt;A combination of &lt;/span&gt;&lt;span style=&quot;background-color: transparent; color: light-dark(rgb(0, 0, 0), rgb(255, 255, 255));&quot; data-end=&quot;425&quot; data-start=&quot;404&quot;&gt;Amazon CloudFront&lt;/span&gt;&lt;span style=&quot;background-color: transparent; color: light-dark(rgb(0, 0, 0), rgb(255, 255, 255));&quot;&gt; and &lt;/span&gt;&lt;span style=&quot;background-color: transparent; color: light-dark(rgb(0, 0, 0), rgb(255, 255, 255));&quot; data-end=&quot;443&quot; data-start=&quot;430&quot;&gt;Amazon S3&lt;/span&gt;&lt;span style=&quot;background-color: transparent; color: light-dark(rgb(0, 0, 0), rgb(255, 255, 255));&quot;&gt; is used to host and deliver the SPA (Single Page Application).&lt;/span&gt;&lt;/div&gt;&lt;div&gt;&lt;span style=&quot;background-color: transparent; color: light-dark(rgb(0, 0, 0), rgb(255, 255, 255));&quot;&gt;-&amp;nbsp;&lt;/span&gt;&lt;span style=&quot;background-color: transparent; color: light-dark(rgb(0, 0, 0), rgb(255, 255, 255));&quot;&gt;This approach was chosen due to its &lt;/span&gt;&lt;span style=&quot;background-color: transparent; color: light-dark(rgb(0, 0, 0), rgb(255, 255, 255));&quot; data-end=&quot;603&quot; data-start=&quot;549&quot;&gt;simplicity, high availability, and cost-efficiency&lt;/span&gt;&lt;/div&gt;&lt;div&gt;&lt;br&gt;&lt;/div&gt;&lt;div&gt;&lt;b&gt;2.&amp;nbsp;&lt;span style=&quot;background-color: transparent; color: light-dark(rgb(0, 0, 0), rgb(255, 255, 255));&quot;&gt;Authentication &amp;amp; Authorization&lt;/span&gt;&lt;/b&gt;&lt;/div&gt;&lt;div&gt;&lt;br&gt;&lt;/div&gt;&lt;div&gt;&lt;span style=&quot;background-color: transparent; color: light-dark(rgb(0, 0, 0), rgb(255, 255, 255));&quot;&gt;-&amp;nbsp;&lt;/span&gt;&lt;span style=&quot;background-color: transparent; color: light-dark(rgb(0, 0, 0), rgb(255, 255, 255));&quot; data-end=&quot;1252&quot; data-start=&quot;1234&quot;&gt;Amazon Cognito&lt;/span&gt;&lt;span style=&quot;background-color: transparent; color: light-dark(rgb(0, 0, 0), rgb(255, 255, 255));&quot;&gt; is integrated for handling identity and access management for &quot;Users&quot;. Social media login is supported&lt;/span&gt;&lt;/div&gt;&lt;div&gt;&lt;span style=&quot;background-color: transparent; color: light-dark(rgb(0, 0, 0), rgb(255, 255, 255));&quot;&gt;&lt;br&gt;&lt;/span&gt;&lt;/div&gt;&lt;div&gt;&lt;span style=&quot;background-color: transparent; color: light-dark(rgb(0, 0, 0), rgb(255, 255, 255));&quot;&gt;&lt;b&gt;3. Security&lt;/b&gt;&lt;/span&gt;&lt;/div&gt;&lt;div&gt;&lt;span style=&quot;background-color: transparent; color: light-dark(rgb(0, 0, 0), rgb(255, 255, 255));&quot;&gt;&lt;br&gt;&lt;/span&gt;&lt;/div&gt;&lt;div&gt;&lt;span style=&quot;background-color: transparent; color: light-dark(rgb(0, 0, 0), rgb(255, 255, 255));&quot;&gt;- TLS everywhere&lt;/span&gt;&lt;/div&gt;&lt;div&gt;&lt;span style=&quot;background-color: transparent; color: light-dark(rgb(0, 0, 0), rgb(255, 255, 255));&quot;&gt;-&amp;nbsp;&lt;/span&gt;&lt;span style=&quot;background-color: transparent; color: light-dark(rgb(0, 0, 0), rgb(255, 255, 255));&quot; data-end=&quot;2241&quot; data-start=&quot;2230&quot;&gt;AWS WAF&lt;/span&gt;&lt;span style=&quot;background-color: transparent; color: light-dark(rgb(0, 0, 0), rgb(255, 255, 255));&quot;&gt; added in front of CloudFront to prevent abuse (rate limiting, IP blocklists)&lt;/span&gt;&lt;/div&gt;" style="text;whiteSpace=wrap;html=1;align=left;" vertex="1" parent="1">
          <mxGeometry x="2033.74" y="2547.13" width="416.01" height="359.5" as="geometry" />
        </mxCell>
      </root>
    </mxGraphModel>
  </diagram>
</mxfile>
